<mxfile host="app.diagrams.net" modified="2021-08-02T03:15:42.417Z" agent="5.0 (Windows NT 10.0; Win64; x64) AppleWebKit/537.36 (KHTML, like Gecko) Chrome/92.0.4515.107 Safari/537.36" etag="bYh16xvOyswPUH8jCiyR" version="14.9.3" type="github">
  <diagram id="14IE2rQUAsmaFd_VFxhA" name="第 1 页">
    <mxGraphModel dx="1865" dy="1716" grid="1" gridSize="10" guides="1" tooltips="1" connect="1" arrows="1" fold="1" page="1" pageScale="1" pageWidth="827" pageHeight="1169" math="0" shadow="0">
      <root>
        <mxCell id="0" />
        <mxCell id="1" parent="0" />
        <mxCell id="2hEy3VEk0m3lQvkDzE6Z-232" value="" style="shape=tape;whiteSpace=wrap;html=1;strokeWidth=2;size=0.02929427430093209;dashed=1;" parent="1" vertex="1">
          <mxGeometry x="503" y="190" width="260" height="378" as="geometry" />
        </mxCell>
        <mxCell id="2hEy3VEk0m3lQvkDzE6Z-185" value="" style="rounded=1;whiteSpace=wrap;html=1;dashed=1;strokeWidth=2;strokeColor=#808080;" parent="1" vertex="1">
          <mxGeometry x="930" y="157" width="430" height="390" as="geometry" />
        </mxCell>
        <mxCell id="2hEy3VEk0m3lQvkDzE6Z-158" value="" style="ellipse;whiteSpace=wrap;html=1;strokeColor=#d6b656;fillColor=#FFE599;" parent="1" vertex="1">
          <mxGeometry x="277" y="375" width="170" height="172" as="geometry" />
        </mxCell>
        <mxCell id="2hEy3VEk0m3lQvkDzE6Z-157" value="" style="ellipse;whiteSpace=wrap;html=1;strokeColor=#d79b00;fillColor=#ffe6cc;" parent="1" vertex="1">
          <mxGeometry x="292" y="437" width="140" height="90" as="geometry" />
        </mxCell>
        <mxCell id="2hEy3VEk0m3lQvkDzE6Z-129" value="" style="ellipse;whiteSpace=wrap;html=1;strokeColor=#d79b00;fillColor=#ffe6cc;" parent="1" vertex="1">
          <mxGeometry x="307" y="384" width="110" height="46" as="geometry" />
        </mxCell>
        <mxCell id="2hEy3VEk0m3lQvkDzE6Z-123" value="" style="ellipse;whiteSpace=wrap;html=1;strokeColor=#82b366;fillColor=#B9E0A5;" parent="1" vertex="1">
          <mxGeometry x="30" y="377" width="230" height="163" as="geometry" />
        </mxCell>
        <mxCell id="2hEy3VEk0m3lQvkDzE6Z-107" value="" style="ellipse;whiteSpace=wrap;html=1;strokeColor=#82b366;fillColor=#d5e8d4;" parent="1" vertex="1">
          <mxGeometry x="90" y="455" width="137" height="80" as="geometry" />
        </mxCell>
        <mxCell id="2hEy3VEk0m3lQvkDzE6Z-97" value="" style="ellipse;whiteSpace=wrap;html=1;strokeColor=#82b366;fillColor=#d5e8d4;" parent="1" vertex="1">
          <mxGeometry x="43" y="400" width="70" height="75" as="geometry" />
        </mxCell>
        <mxCell id="2hEy3VEk0m3lQvkDzE6Z-90" value="" style="ellipse;whiteSpace=wrap;html=1;strokeColor=#82b366;fillColor=#d5e8d4;" parent="1" vertex="1">
          <mxGeometry x="120" y="390" width="100" height="60" as="geometry" />
        </mxCell>
        <mxCell id="2hEy3VEk0m3lQvkDzE6Z-80" value="" style="ellipse;whiteSpace=wrap;html=1;strokeColor=#6c8ebf;fillColor=#D4E1F5;" parent="1" vertex="1">
          <mxGeometry x="285" y="190" width="145" height="181" as="geometry" />
        </mxCell>
        <mxCell id="2hEy3VEk0m3lQvkDzE6Z-77" value="" style="ellipse;whiteSpace=wrap;html=1;strokeColor=#9673a6;fillColor=#E6D0DE;" parent="1" vertex="1">
          <mxGeometry x="35" y="190" width="230" height="180" as="geometry" />
        </mxCell>
        <mxCell id="2hEy3VEk0m3lQvkDzE6Z-73" value="" style="ellipse;whiteSpace=wrap;html=1;strokeColor=#6c8ebf;fillColor=#dae8fc;" parent="1" vertex="1">
          <mxGeometry x="303" y="286" width="117" height="60" as="geometry" />
        </mxCell>
        <mxCell id="2hEy3VEk0m3lQvkDzE6Z-60" value="" style="ellipse;whiteSpace=wrap;html=1;strokeColor=#6c8ebf;fillColor=#dae8fc;" parent="1" vertex="1">
          <mxGeometry x="297" y="203" width="116" height="73" as="geometry" />
        </mxCell>
        <mxCell id="2hEy3VEk0m3lQvkDzE6Z-39" value="" style="ellipse;whiteSpace=wrap;html=1;strokeColor=#9673a6;fillColor=#e1d5e7;" parent="1" vertex="1">
          <mxGeometry x="156" y="210" width="94" height="130" as="geometry" />
        </mxCell>
        <mxCell id="2hEy3VEk0m3lQvkDzE6Z-29" value="" style="ellipse;whiteSpace=wrap;html=1;strokeColor=#9673a6;fillColor=#e1d5e7;" parent="1" vertex="1">
          <mxGeometry x="50" y="210" width="100" height="140" as="geometry" />
        </mxCell>
        <mxCell id="2hEy3VEk0m3lQvkDzE6Z-2" value="" style="ellipse;whiteSpace=wrap;html=1;aspect=fixed;fillColor=#cdeb8b;" parent="1" vertex="1">
          <mxGeometry x="78" y="236" width="20" height="20" as="geometry" />
        </mxCell>
        <mxCell id="2hEy3VEk0m3lQvkDzE6Z-3" value="" style="ellipse;whiteSpace=wrap;html=1;aspect=fixed;fillColor=#cdeb8b;" parent="1" vertex="1">
          <mxGeometry x="58" y="266" width="20" height="20" as="geometry" />
        </mxCell>
        <mxCell id="2hEy3VEk0m3lQvkDzE6Z-4" value="" style="ellipse;whiteSpace=wrap;html=1;aspect=fixed;fillColor=#cdeb8b;" parent="1" vertex="1">
          <mxGeometry x="73" y="295" width="20" height="20" as="geometry" />
        </mxCell>
        <mxCell id="2hEy3VEk0m3lQvkDzE6Z-7" value="" style="ellipse;whiteSpace=wrap;html=1;aspect=fixed;fillColor=#ffcc99;strokeColor=#36393d;" parent="1" vertex="1">
          <mxGeometry x="114" y="230" width="20" height="20" as="geometry" />
        </mxCell>
        <mxCell id="2hEy3VEk0m3lQvkDzE6Z-8" value="" style="ellipse;whiteSpace=wrap;html=1;aspect=fixed;fillColor=#ffcc99;strokeColor=#36393d;" parent="1" vertex="1">
          <mxGeometry x="110" y="270" width="20" height="20" as="geometry" />
        </mxCell>
        <mxCell id="2hEy3VEk0m3lQvkDzE6Z-9" value="" style="ellipse;whiteSpace=wrap;html=1;aspect=fixed;fillColor=#ffcc99;strokeColor=#36393d;" parent="1" vertex="1">
          <mxGeometry x="111" y="308" width="20" height="20" as="geometry" />
        </mxCell>
        <mxCell id="2hEy3VEk0m3lQvkDzE6Z-12" value="" style="ellipse;whiteSpace=wrap;html=1;aspect=fixed;fillColor=#ffcc99;strokeColor=#36393d;" parent="1" vertex="1">
          <mxGeometry x="170" y="266" width="20" height="20" as="geometry" />
        </mxCell>
        <mxCell id="2hEy3VEk0m3lQvkDzE6Z-13" value="" style="ellipse;whiteSpace=wrap;html=1;aspect=fixed;fillColor=#ffcc99;strokeColor=#36393d;" parent="1" vertex="1">
          <mxGeometry x="172" y="226" width="20" height="20" as="geometry" />
        </mxCell>
        <mxCell id="2hEy3VEk0m3lQvkDzE6Z-14" value="" style="endArrow=none;html=1;exitX=1;exitY=0.5;exitDx=0;exitDy=0;entryX=0;entryY=0.5;entryDx=0;entryDy=0;" parent="1" source="2hEy3VEk0m3lQvkDzE6Z-2" target="2hEy3VEk0m3lQvkDzE6Z-7" edge="1">
          <mxGeometry width="50" height="50" relative="1" as="geometry">
            <mxPoint x="370" y="430" as="sourcePoint" />
            <mxPoint x="110" y="240" as="targetPoint" />
          </mxGeometry>
        </mxCell>
        <mxCell id="2hEy3VEk0m3lQvkDzE6Z-15" value="" style="endArrow=none;html=1;exitX=1;exitY=1;exitDx=0;exitDy=0;entryX=0;entryY=0;entryDx=0;entryDy=0;" parent="1" source="2hEy3VEk0m3lQvkDzE6Z-2" target="2hEy3VEk0m3lQvkDzE6Z-8" edge="1">
          <mxGeometry width="50" height="50" relative="1" as="geometry">
            <mxPoint x="370" y="430" as="sourcePoint" />
            <mxPoint x="420" y="380" as="targetPoint" />
          </mxGeometry>
        </mxCell>
        <mxCell id="2hEy3VEk0m3lQvkDzE6Z-16" value="" style="endArrow=none;html=1;entryX=0;entryY=0.5;entryDx=0;entryDy=0;" parent="1" target="2hEy3VEk0m3lQvkDzE6Z-9" edge="1">
          <mxGeometry width="50" height="50" relative="1" as="geometry">
            <mxPoint x="93" y="305" as="sourcePoint" />
            <mxPoint x="420" y="380" as="targetPoint" />
          </mxGeometry>
        </mxCell>
        <mxCell id="2hEy3VEk0m3lQvkDzE6Z-17" value="" style="endArrow=none;html=1;exitX=1;exitY=0.5;exitDx=0;exitDy=0;entryX=0;entryY=1;entryDx=0;entryDy=0;" parent="1" source="2hEy3VEk0m3lQvkDzE6Z-4" target="2hEy3VEk0m3lQvkDzE6Z-8" edge="1">
          <mxGeometry width="50" height="50" relative="1" as="geometry">
            <mxPoint x="370" y="430" as="sourcePoint" />
            <mxPoint x="420" y="380" as="targetPoint" />
          </mxGeometry>
        </mxCell>
        <mxCell id="2hEy3VEk0m3lQvkDzE6Z-18" value="" style="endArrow=none;html=1;exitX=1;exitY=0.5;exitDx=0;exitDy=0;" parent="1" source="2hEy3VEk0m3lQvkDzE6Z-3" edge="1">
          <mxGeometry width="50" height="50" relative="1" as="geometry">
            <mxPoint x="370" y="430" as="sourcePoint" />
            <mxPoint x="110" y="280" as="targetPoint" />
          </mxGeometry>
        </mxCell>
        <mxCell id="2hEy3VEk0m3lQvkDzE6Z-19" value="" style="endArrow=none;html=1;exitX=1;exitY=0;exitDx=0;exitDy=0;entryX=0;entryY=1;entryDx=0;entryDy=0;" parent="1" source="2hEy3VEk0m3lQvkDzE6Z-3" target="2hEy3VEk0m3lQvkDzE6Z-2" edge="1">
          <mxGeometry width="50" height="50" relative="1" as="geometry">
            <mxPoint x="370" y="430" as="sourcePoint" />
            <mxPoint x="420" y="380" as="targetPoint" />
          </mxGeometry>
        </mxCell>
        <mxCell id="2hEy3VEk0m3lQvkDzE6Z-20" value="" style="endArrow=none;html=1;exitX=0.5;exitY=1;exitDx=0;exitDy=0;entryX=0;entryY=0;entryDx=0;entryDy=0;exitPerimeter=0;" parent="1" source="2hEy3VEk0m3lQvkDzE6Z-3" target="2hEy3VEk0m3lQvkDzE6Z-4" edge="1">
          <mxGeometry width="50" height="50" relative="1" as="geometry">
            <mxPoint x="370" y="430" as="sourcePoint" />
            <mxPoint x="420" y="380" as="targetPoint" />
          </mxGeometry>
        </mxCell>
        <mxCell id="2hEy3VEk0m3lQvkDzE6Z-21" value="" style="endArrow=none;html=1;entryX=0.5;entryY=1;entryDx=0;entryDy=0;exitX=0.5;exitY=0;exitDx=0;exitDy=0;" parent="1" source="2hEy3VEk0m3lQvkDzE6Z-8" target="2hEy3VEk0m3lQvkDzE6Z-7" edge="1">
          <mxGeometry width="50" height="50" relative="1" as="geometry">
            <mxPoint x="370" y="430" as="sourcePoint" />
            <mxPoint x="420" y="380" as="targetPoint" />
          </mxGeometry>
        </mxCell>
        <mxCell id="2hEy3VEk0m3lQvkDzE6Z-22" value="" style="endArrow=none;html=1;entryX=0.5;entryY=1;entryDx=0;entryDy=0;exitX=0.5;exitY=0;exitDx=0;exitDy=0;" parent="1" source="2hEy3VEk0m3lQvkDzE6Z-9" target="2hEy3VEk0m3lQvkDzE6Z-8" edge="1">
          <mxGeometry width="50" height="50" relative="1" as="geometry">
            <mxPoint x="370" y="430" as="sourcePoint" />
            <mxPoint x="420" y="380" as="targetPoint" />
          </mxGeometry>
        </mxCell>
        <mxCell id="2hEy3VEk0m3lQvkDzE6Z-23" value="" style="endArrow=none;html=1;entryX=1;entryY=0.5;entryDx=0;entryDy=0;exitX=0;exitY=0.5;exitDx=0;exitDy=0;" parent="1" source="2hEy3VEk0m3lQvkDzE6Z-13" target="2hEy3VEk0m3lQvkDzE6Z-7" edge="1">
          <mxGeometry width="50" height="50" relative="1" as="geometry">
            <mxPoint x="370" y="430" as="sourcePoint" />
            <mxPoint x="420" y="380" as="targetPoint" />
          </mxGeometry>
        </mxCell>
        <mxCell id="2hEy3VEk0m3lQvkDzE6Z-24" value="" style="endArrow=none;html=1;exitX=1;exitY=0.5;exitDx=0;exitDy=0;entryX=0;entryY=0.5;entryDx=0;entryDy=0;" parent="1" source="2hEy3VEk0m3lQvkDzE6Z-8" target="2hEy3VEk0m3lQvkDzE6Z-12" edge="1">
          <mxGeometry width="50" height="50" relative="1" as="geometry">
            <mxPoint x="370" y="430" as="sourcePoint" />
            <mxPoint x="420" y="380" as="targetPoint" />
          </mxGeometry>
        </mxCell>
        <mxCell id="2hEy3VEk0m3lQvkDzE6Z-26" value="" style="endArrow=none;html=1;entryX=0.5;entryY=1;entryDx=0;entryDy=0;exitX=0.5;exitY=0;exitDx=0;exitDy=0;" parent="1" source="2hEy3VEk0m3lQvkDzE6Z-12" target="2hEy3VEk0m3lQvkDzE6Z-13" edge="1">
          <mxGeometry width="50" height="50" relative="1" as="geometry">
            <mxPoint x="370" y="430" as="sourcePoint" />
            <mxPoint x="420" y="380" as="targetPoint" />
          </mxGeometry>
        </mxCell>
        <mxCell id="2hEy3VEk0m3lQvkDzE6Z-27" value="" style="ellipse;whiteSpace=wrap;html=1;aspect=fixed;fillColor=#ffcc99;strokeColor=#36393d;" parent="1" vertex="1">
          <mxGeometry x="187" y="300" width="20" height="20" as="geometry" />
        </mxCell>
        <mxCell id="2hEy3VEk0m3lQvkDzE6Z-28" value="" style="endArrow=none;html=1;entryX=0.5;entryY=1;entryDx=0;entryDy=0;exitX=0.5;exitY=0;exitDx=0;exitDy=0;" parent="1" source="2hEy3VEk0m3lQvkDzE6Z-27" target="2hEy3VEk0m3lQvkDzE6Z-12" edge="1">
          <mxGeometry width="50" height="50" relative="1" as="geometry">
            <mxPoint x="370" y="430" as="sourcePoint" />
            <mxPoint x="420" y="380" as="targetPoint" />
          </mxGeometry>
        </mxCell>
        <mxCell id="2hEy3VEk0m3lQvkDzE6Z-30" value="" style="ellipse;whiteSpace=wrap;html=1;aspect=fixed;fillColor=#f5f5f5;strokeColor=#666666;gradientColor=#b3b3b3;" parent="1" vertex="1">
          <mxGeometry x="208" y="219" width="20" height="20" as="geometry" />
        </mxCell>
        <mxCell id="2hEy3VEk0m3lQvkDzE6Z-34" value="" style="ellipse;whiteSpace=wrap;html=1;aspect=fixed;fillColor=#f5f5f5;strokeColor=#666666;gradientColor=#b3b3b3;" parent="1" vertex="1">
          <mxGeometry x="231" y="262" width="20" height="20" as="geometry" />
        </mxCell>
        <mxCell id="2hEy3VEk0m3lQvkDzE6Z-36" value="" style="endArrow=none;html=1;exitX=1;exitY=0.5;exitDx=0;exitDy=0;entryX=0;entryY=0.5;entryDx=0;entryDy=0;" parent="1" source="2hEy3VEk0m3lQvkDzE6Z-13" target="2hEy3VEk0m3lQvkDzE6Z-30" edge="1">
          <mxGeometry width="50" height="50" relative="1" as="geometry">
            <mxPoint x="370" y="330" as="sourcePoint" />
            <mxPoint x="420" y="280" as="targetPoint" />
          </mxGeometry>
        </mxCell>
        <mxCell id="2hEy3VEk0m3lQvkDzE6Z-37" value="" style="endArrow=none;html=1;entryX=0;entryY=0;entryDx=0;entryDy=0;exitX=1;exitY=1;exitDx=0;exitDy=0;" parent="1" source="2hEy3VEk0m3lQvkDzE6Z-13" target="2hEy3VEk0m3lQvkDzE6Z-34" edge="1">
          <mxGeometry width="50" height="50" relative="1" as="geometry">
            <mxPoint x="190" y="230" as="sourcePoint" />
            <mxPoint x="420" y="280" as="targetPoint" />
          </mxGeometry>
        </mxCell>
        <mxCell id="2hEy3VEk0m3lQvkDzE6Z-42" value="" style="endArrow=none;html=1;exitX=1;exitY=0.5;exitDx=0;exitDy=0;entryX=0;entryY=1;entryDx=0;entryDy=0;" parent="1" source="2hEy3VEk0m3lQvkDzE6Z-12" target="2hEy3VEk0m3lQvkDzE6Z-34" edge="1">
          <mxGeometry width="50" height="50" relative="1" as="geometry">
            <mxPoint x="370" y="330" as="sourcePoint" />
            <mxPoint x="420" y="280" as="targetPoint" />
          </mxGeometry>
        </mxCell>
        <mxCell id="2hEy3VEk0m3lQvkDzE6Z-43" value="" style="endArrow=none;html=1;exitX=0.5;exitY=0;exitDx=0;exitDy=0;entryX=0.5;entryY=1;entryDx=0;entryDy=0;" parent="1" source="2hEy3VEk0m3lQvkDzE6Z-34" target="2hEy3VEk0m3lQvkDzE6Z-30" edge="1">
          <mxGeometry width="50" height="50" relative="1" as="geometry">
            <mxPoint x="370" y="330" as="sourcePoint" />
            <mxPoint x="420" y="280" as="targetPoint" />
          </mxGeometry>
        </mxCell>
        <mxCell id="2hEy3VEk0m3lQvkDzE6Z-44" value="" style="ellipse;whiteSpace=wrap;html=1;aspect=fixed;fillColor=#f5f5f5;strokeColor=#666666;gradientColor=#b3b3b3;" parent="1" vertex="1">
          <mxGeometry x="323" y="252" width="20" height="20" as="geometry" />
        </mxCell>
        <mxCell id="2hEy3VEk0m3lQvkDzE6Z-45" value="" style="ellipse;whiteSpace=wrap;html=1;aspect=fixed;fillColor=#f5f5f5;strokeColor=#666666;gradientColor=#b3b3b3;" parent="1" vertex="1">
          <mxGeometry x="363" y="242" width="20" height="20" as="geometry" />
        </mxCell>
        <mxCell id="2hEy3VEk0m3lQvkDzE6Z-46" value="" style="ellipse;whiteSpace=wrap;html=1;aspect=fixed;fillColor=#f5f5f5;strokeColor=#666666;gradientColor=#b3b3b3;" parent="1" vertex="1">
          <mxGeometry x="313" y="215" width="20" height="20" as="geometry" />
        </mxCell>
        <mxCell id="2hEy3VEk0m3lQvkDzE6Z-47" value="" style="ellipse;whiteSpace=wrap;html=1;aspect=fixed;fillColor=#f5f5f5;strokeColor=#666666;gradientColor=#b3b3b3;" parent="1" vertex="1">
          <mxGeometry x="373" y="212" width="20" height="20" as="geometry" />
        </mxCell>
        <mxCell id="2hEy3VEk0m3lQvkDzE6Z-55" value="" style="endArrow=none;html=1;exitX=1;exitY=0.5;exitDx=0;exitDy=0;entryX=0;entryY=0.5;entryDx=0;entryDy=0;" parent="1" source="2hEy3VEk0m3lQvkDzE6Z-46" target="2hEy3VEk0m3lQvkDzE6Z-47" edge="1">
          <mxGeometry width="50" height="50" relative="1" as="geometry">
            <mxPoint x="403" y="426" as="sourcePoint" />
            <mxPoint x="453" y="376" as="targetPoint" />
          </mxGeometry>
        </mxCell>
        <mxCell id="2hEy3VEk0m3lQvkDzE6Z-56" value="" style="endArrow=none;html=1;exitX=1;exitY=1;exitDx=0;exitDy=0;entryX=0;entryY=0;entryDx=0;entryDy=0;" parent="1" source="2hEy3VEk0m3lQvkDzE6Z-46" target="2hEy3VEk0m3lQvkDzE6Z-45" edge="1">
          <mxGeometry width="50" height="50" relative="1" as="geometry">
            <mxPoint x="403" y="426" as="sourcePoint" />
            <mxPoint x="453" y="376" as="targetPoint" />
          </mxGeometry>
        </mxCell>
        <mxCell id="2hEy3VEk0m3lQvkDzE6Z-57" value="" style="endArrow=none;html=1;entryX=0;entryY=0;entryDx=0;entryDy=0;" parent="1" target="2hEy3VEk0m3lQvkDzE6Z-44" edge="1">
          <mxGeometry width="50" height="50" relative="1" as="geometry">
            <mxPoint x="323" y="236" as="sourcePoint" />
            <mxPoint x="453" y="376" as="targetPoint" />
          </mxGeometry>
        </mxCell>
        <mxCell id="2hEy3VEk0m3lQvkDzE6Z-58" value="" style="endArrow=none;html=1;exitX=1;exitY=0;exitDx=0;exitDy=0;entryX=0.5;entryY=1;entryDx=0;entryDy=0;" parent="1" source="2hEy3VEk0m3lQvkDzE6Z-45" target="2hEy3VEk0m3lQvkDzE6Z-47" edge="1">
          <mxGeometry width="50" height="50" relative="1" as="geometry">
            <mxPoint x="403" y="426" as="sourcePoint" />
            <mxPoint x="453" y="376" as="targetPoint" />
          </mxGeometry>
        </mxCell>
        <mxCell id="2hEy3VEk0m3lQvkDzE6Z-59" value="" style="endArrow=none;html=1;exitX=1;exitY=0.5;exitDx=0;exitDy=0;entryX=0;entryY=1;entryDx=0;entryDy=0;" parent="1" source="2hEy3VEk0m3lQvkDzE6Z-44" target="2hEy3VEk0m3lQvkDzE6Z-45" edge="1">
          <mxGeometry width="50" height="50" relative="1" as="geometry">
            <mxPoint x="403" y="426" as="sourcePoint" />
            <mxPoint x="453" y="376" as="targetPoint" />
          </mxGeometry>
        </mxCell>
        <mxCell id="2hEy3VEk0m3lQvkDzE6Z-64" value="" style="ellipse;whiteSpace=wrap;html=1;aspect=fixed;fillColor=#f5f5f5;strokeColor=#666666;gradientColor=#b3b3b3;" parent="1" vertex="1">
          <mxGeometry x="377" y="295" width="20" height="20" as="geometry" />
        </mxCell>
        <mxCell id="2hEy3VEk0m3lQvkDzE6Z-65" value="" style="ellipse;whiteSpace=wrap;html=1;aspect=fixed;fillColor=#f5f5f5;strokeColor=#666666;gradientColor=#b3b3b3;" parent="1" vertex="1">
          <mxGeometry x="363" y="322" width="20" height="20" as="geometry" />
        </mxCell>
        <mxCell id="2hEy3VEk0m3lQvkDzE6Z-66" value="" style="ellipse;whiteSpace=wrap;html=1;aspect=fixed;fillColor=#ffcccc;strokeColor=#36393d;" parent="1" vertex="1">
          <mxGeometry x="314" y="316" width="20" height="20" as="geometry" />
        </mxCell>
        <mxCell id="2hEy3VEk0m3lQvkDzE6Z-67" value="" style="ellipse;whiteSpace=wrap;html=1;aspect=fixed;fillColor=#ffcccc;strokeColor=#36393d;" parent="1" vertex="1">
          <mxGeometry x="333" y="291" width="20" height="20" as="geometry" />
        </mxCell>
        <mxCell id="2hEy3VEk0m3lQvkDzE6Z-68" value="" style="endArrow=none;html=1;entryX=0;entryY=1;entryDx=0;entryDy=0;exitX=1;exitY=0;exitDx=0;exitDy=0;" parent="1" source="2hEy3VEk0m3lQvkDzE6Z-66" target="2hEy3VEk0m3lQvkDzE6Z-67" edge="1">
          <mxGeometry width="50" height="50" relative="1" as="geometry">
            <mxPoint x="403" y="426" as="sourcePoint" />
            <mxPoint x="453" y="376" as="targetPoint" />
          </mxGeometry>
        </mxCell>
        <mxCell id="2hEy3VEk0m3lQvkDzE6Z-69" value="" style="endArrow=none;html=1;entryX=1;entryY=1;entryDx=0;entryDy=0;exitX=0;exitY=0;exitDx=0;exitDy=0;" parent="1" source="2hEy3VEk0m3lQvkDzE6Z-65" target="2hEy3VEk0m3lQvkDzE6Z-67" edge="1">
          <mxGeometry width="50" height="50" relative="1" as="geometry">
            <mxPoint x="403" y="426" as="sourcePoint" />
            <mxPoint x="453" y="376" as="targetPoint" />
          </mxGeometry>
        </mxCell>
        <mxCell id="2hEy3VEk0m3lQvkDzE6Z-70" value="" style="endArrow=none;html=1;exitX=1;exitY=0.5;exitDx=0;exitDy=0;entryX=0;entryY=0.5;entryDx=0;entryDy=0;" parent="1" source="2hEy3VEk0m3lQvkDzE6Z-67" target="2hEy3VEk0m3lQvkDzE6Z-64" edge="1">
          <mxGeometry width="50" height="50" relative="1" as="geometry">
            <mxPoint x="403" y="426" as="sourcePoint" />
            <mxPoint x="453" y="376" as="targetPoint" />
          </mxGeometry>
        </mxCell>
        <mxCell id="2hEy3VEk0m3lQvkDzE6Z-71" value="" style="endArrow=none;html=1;entryX=0.5;entryY=1;entryDx=0;entryDy=0;exitX=1;exitY=0;exitDx=0;exitDy=0;" parent="1" source="2hEy3VEk0m3lQvkDzE6Z-65" target="2hEy3VEk0m3lQvkDzE6Z-64" edge="1">
          <mxGeometry width="50" height="50" relative="1" as="geometry">
            <mxPoint x="403" y="426" as="sourcePoint" />
            <mxPoint x="453" y="376" as="targetPoint" />
          </mxGeometry>
        </mxCell>
        <mxCell id="2hEy3VEk0m3lQvkDzE6Z-75" value="" style="endArrow=none;html=1;entryX=0;entryY=0.5;entryDx=0;entryDy=0;" parent="1" target="2hEy3VEk0m3lQvkDzE6Z-65" edge="1">
          <mxGeometry width="50" height="50" relative="1" as="geometry">
            <mxPoint x="333" y="332" as="sourcePoint" />
            <mxPoint x="453" y="376" as="targetPoint" />
          </mxGeometry>
        </mxCell>
        <mxCell id="2hEy3VEk0m3lQvkDzE6Z-81" value="" style="ellipse;whiteSpace=wrap;html=1;aspect=fixed;fillColor=#ffcc99;strokeColor=#36393d;" parent="1" vertex="1">
          <mxGeometry x="187" y="400" width="20" height="20" as="geometry" />
        </mxCell>
        <mxCell id="2hEy3VEk0m3lQvkDzE6Z-82" value="" style="ellipse;whiteSpace=wrap;html=1;aspect=fixed;fillColor=#ffcc99;strokeColor=#36393d;" parent="1" vertex="1">
          <mxGeometry x="156" y="424" width="20" height="20" as="geometry" />
        </mxCell>
        <mxCell id="2hEy3VEk0m3lQvkDzE6Z-83" value="" style="ellipse;whiteSpace=wrap;html=1;aspect=fixed;fillColor=#ffcc99;strokeColor=#36393d;" parent="1" vertex="1">
          <mxGeometry x="130" y="400" width="20" height="20" as="geometry" />
        </mxCell>
        <mxCell id="2hEy3VEk0m3lQvkDzE6Z-85" value="" style="endArrow=none;html=1;exitX=1;exitY=0.5;exitDx=0;exitDy=0;entryX=0;entryY=0.5;entryDx=0;entryDy=0;" parent="1" source="2hEy3VEk0m3lQvkDzE6Z-83" target="2hEy3VEk0m3lQvkDzE6Z-81" edge="1">
          <mxGeometry width="50" height="50" relative="1" as="geometry">
            <mxPoint x="370" y="440" as="sourcePoint" />
            <mxPoint x="420" y="390" as="targetPoint" />
          </mxGeometry>
        </mxCell>
        <mxCell id="2hEy3VEk0m3lQvkDzE6Z-86" value="" style="endArrow=none;html=1;entryX=0;entryY=1;entryDx=0;entryDy=0;exitX=1;exitY=0.5;exitDx=0;exitDy=0;" parent="1" source="2hEy3VEk0m3lQvkDzE6Z-82" target="2hEy3VEk0m3lQvkDzE6Z-81" edge="1">
          <mxGeometry width="50" height="50" relative="1" as="geometry">
            <mxPoint x="208.42640687119285" y="396.715728752538" as="sourcePoint" />
            <mxPoint x="420" y="390" as="targetPoint" />
          </mxGeometry>
        </mxCell>
        <mxCell id="2hEy3VEk0m3lQvkDzE6Z-87" value="" style="endArrow=none;html=1;entryX=0;entryY=0;entryDx=0;entryDy=0;exitX=1;exitY=1;exitDx=0;exitDy=0;" parent="1" source="2hEy3VEk0m3lQvkDzE6Z-83" target="2hEy3VEk0m3lQvkDzE6Z-82" edge="1">
          <mxGeometry width="50" height="50" relative="1" as="geometry">
            <mxPoint x="140" y="410" as="sourcePoint" />
            <mxPoint x="420" y="390" as="targetPoint" />
          </mxGeometry>
        </mxCell>
        <mxCell id="2hEy3VEk0m3lQvkDzE6Z-91" value="" style="ellipse;whiteSpace=wrap;html=1;aspect=fixed;fillColor=#cdeb8b;" parent="1" vertex="1">
          <mxGeometry x="80" y="448" width="20" height="20" as="geometry" />
        </mxCell>
        <mxCell id="2hEy3VEk0m3lQvkDzE6Z-92" value="" style="ellipse;whiteSpace=wrap;html=1;aspect=fixed;fillColor=#cdeb8b;" parent="1" vertex="1">
          <mxGeometry x="48" y="435" width="20" height="20" as="geometry" />
        </mxCell>
        <mxCell id="2hEy3VEk0m3lQvkDzE6Z-93" value="" style="ellipse;whiteSpace=wrap;html=1;aspect=fixed;fillColor=#cdeb8b;" parent="1" vertex="1">
          <mxGeometry x="72" y="407" width="20" height="20" as="geometry" />
        </mxCell>
        <mxCell id="2hEy3VEk0m3lQvkDzE6Z-94" value="" style="endArrow=none;html=1;entryX=0.5;entryY=0;entryDx=0;entryDy=0;" parent="1" target="2hEy3VEk0m3lQvkDzE6Z-91" edge="1">
          <mxGeometry width="50" height="50" relative="1" as="geometry">
            <mxPoint x="83" y="425" as="sourcePoint" />
            <mxPoint x="430" y="385" as="targetPoint" />
          </mxGeometry>
        </mxCell>
        <mxCell id="2hEy3VEk0m3lQvkDzE6Z-95" value="" style="endArrow=none;html=1;exitX=1;exitY=0;exitDx=0;exitDy=0;entryX=0;entryY=1;entryDx=0;entryDy=0;" parent="1" source="2hEy3VEk0m3lQvkDzE6Z-92" target="2hEy3VEk0m3lQvkDzE6Z-93" edge="1">
          <mxGeometry width="50" height="50" relative="1" as="geometry">
            <mxPoint x="380" y="435" as="sourcePoint" />
            <mxPoint x="430" y="385" as="targetPoint" />
          </mxGeometry>
        </mxCell>
        <mxCell id="2hEy3VEk0m3lQvkDzE6Z-96" value="" style="endArrow=none;html=1;exitX=1;exitY=1;exitDx=0;exitDy=0;entryX=0;entryY=0.5;entryDx=0;entryDy=0;" parent="1" source="2hEy3VEk0m3lQvkDzE6Z-92" target="2hEy3VEk0m3lQvkDzE6Z-91" edge="1">
          <mxGeometry width="50" height="50" relative="1" as="geometry">
            <mxPoint x="380" y="435" as="sourcePoint" />
            <mxPoint x="430" y="385" as="targetPoint" />
          </mxGeometry>
        </mxCell>
        <mxCell id="2hEy3VEk0m3lQvkDzE6Z-98" value="" style="ellipse;whiteSpace=wrap;html=1;aspect=fixed;fillColor=#cdeb8b;" parent="1" vertex="1">
          <mxGeometry x="104" y="474" width="20" height="20" as="geometry" />
        </mxCell>
        <mxCell id="2hEy3VEk0m3lQvkDzE6Z-99" value="" style="ellipse;whiteSpace=wrap;html=1;aspect=fixed;fillColor=#cdeb8b;" parent="1" vertex="1">
          <mxGeometry x="131" y="495" width="20" height="20" as="geometry" />
        </mxCell>
        <mxCell id="2hEy3VEk0m3lQvkDzE6Z-100" value="" style="ellipse;whiteSpace=wrap;html=1;aspect=fixed;fillColor=#cdeb8b;" parent="1" vertex="1">
          <mxGeometry x="140" y="464" width="20" height="20" as="geometry" />
        </mxCell>
        <mxCell id="2hEy3VEk0m3lQvkDzE6Z-102" value="" style="endArrow=none;html=1;exitX=1;exitY=0;exitDx=0;exitDy=0;" parent="1" source="2hEy3VEk0m3lQvkDzE6Z-98" edge="1">
          <mxGeometry width="50" height="50" relative="1" as="geometry">
            <mxPoint x="370" y="424" as="sourcePoint" />
            <mxPoint x="140" y="474" as="targetPoint" />
          </mxGeometry>
        </mxCell>
        <mxCell id="2hEy3VEk0m3lQvkDzE6Z-104" value="" style="endArrow=none;html=1;exitX=1;exitY=1;exitDx=0;exitDy=0;entryX=0;entryY=0;entryDx=0;entryDy=0;" parent="1" source="2hEy3VEk0m3lQvkDzE6Z-98" target="2hEy3VEk0m3lQvkDzE6Z-99" edge="1">
          <mxGeometry width="50" height="50" relative="1" as="geometry">
            <mxPoint x="370" y="424" as="sourcePoint" />
            <mxPoint x="420" y="374" as="targetPoint" />
          </mxGeometry>
        </mxCell>
        <mxCell id="2hEy3VEk0m3lQvkDzE6Z-105" value="" style="endArrow=none;html=1;entryX=0.5;entryY=1;entryDx=0;entryDy=0;exitX=1;exitY=0;exitDx=0;exitDy=0;" parent="1" source="2hEy3VEk0m3lQvkDzE6Z-99" target="2hEy3VEk0m3lQvkDzE6Z-100" edge="1">
          <mxGeometry width="50" height="50" relative="1" as="geometry">
            <mxPoint x="150" y="504" as="sourcePoint" />
            <mxPoint x="420" y="374" as="targetPoint" />
          </mxGeometry>
        </mxCell>
        <mxCell id="2hEy3VEk0m3lQvkDzE6Z-108" value="" style="ellipse;whiteSpace=wrap;html=1;aspect=fixed;fillColor=#ffcccc;strokeColor=#36393d;" parent="1" vertex="1">
          <mxGeometry x="178" y="464" width="20" height="20" as="geometry" />
        </mxCell>
        <mxCell id="2hEy3VEk0m3lQvkDzE6Z-112" value="" style="ellipse;whiteSpace=wrap;html=1;aspect=fixed;fillColor=#ffcccc;strokeColor=#36393d;fontStyle=1" parent="1" vertex="1">
          <mxGeometry x="202" y="494" width="20" height="20" as="geometry" />
        </mxCell>
        <mxCell id="2hEy3VEk0m3lQvkDzE6Z-113" value="" style="ellipse;whiteSpace=wrap;html=1;aspect=fixed;fillColor=#ffcccc;strokeColor=#36393d;direction=south;" parent="1" vertex="1">
          <mxGeometry x="168" y="500" width="20" height="20" as="geometry" />
        </mxCell>
        <mxCell id="2hEy3VEk0m3lQvkDzE6Z-117" value="" style="endArrow=none;html=1;exitX=0;exitY=0.5;exitDx=0;exitDy=0;entryX=0.5;entryY=1;entryDx=0;entryDy=0;" parent="1" source="2hEy3VEk0m3lQvkDzE6Z-113" target="2hEy3VEk0m3lQvkDzE6Z-108" edge="1">
          <mxGeometry width="50" height="50" relative="1" as="geometry">
            <mxPoint x="370" y="424" as="sourcePoint" />
            <mxPoint x="420" y="374" as="targetPoint" />
          </mxGeometry>
        </mxCell>
        <mxCell id="2hEy3VEk0m3lQvkDzE6Z-118" value="" style="endArrow=none;html=1;exitX=0.5;exitY=0;exitDx=0;exitDy=0;entryX=0;entryY=0.5;entryDx=0;entryDy=0;" parent="1" source="2hEy3VEk0m3lQvkDzE6Z-113" target="2hEy3VEk0m3lQvkDzE6Z-112" edge="1">
          <mxGeometry width="50" height="50" relative="1" as="geometry">
            <mxPoint x="370" y="424" as="sourcePoint" />
            <mxPoint x="420" y="374" as="targetPoint" />
          </mxGeometry>
        </mxCell>
        <mxCell id="2hEy3VEk0m3lQvkDzE6Z-119" value="" style="endArrow=none;html=1;entryX=1;entryY=1;entryDx=0;entryDy=0;exitX=0;exitY=0;exitDx=0;exitDy=0;" parent="1" source="2hEy3VEk0m3lQvkDzE6Z-112" target="2hEy3VEk0m3lQvkDzE6Z-108" edge="1">
          <mxGeometry width="50" height="50" relative="1" as="geometry">
            <mxPoint x="370" y="424" as="sourcePoint" />
            <mxPoint x="420" y="374" as="targetPoint" />
          </mxGeometry>
        </mxCell>
        <mxCell id="2hEy3VEk0m3lQvkDzE6Z-120" value="" style="endArrow=none;html=1;exitX=1;exitY=1;exitDx=0;exitDy=0;entryX=0.5;entryY=1;entryDx=0;entryDy=0;" parent="1" source="2hEy3VEk0m3lQvkDzE6Z-99" target="2hEy3VEk0m3lQvkDzE6Z-113" edge="1">
          <mxGeometry width="50" height="50" relative="1" as="geometry">
            <mxPoint x="370" y="424" as="sourcePoint" />
            <mxPoint x="420" y="374" as="targetPoint" />
          </mxGeometry>
        </mxCell>
        <mxCell id="2hEy3VEk0m3lQvkDzE6Z-121" value="" style="endArrow=none;html=1;exitX=1;exitY=0.5;exitDx=0;exitDy=0;entryX=0;entryY=1;entryDx=0;entryDy=0;" parent="1" source="2hEy3VEk0m3lQvkDzE6Z-99" target="2hEy3VEk0m3lQvkDzE6Z-108" edge="1">
          <mxGeometry width="50" height="50" relative="1" as="geometry">
            <mxPoint x="370" y="424" as="sourcePoint" />
            <mxPoint x="420" y="374" as="targetPoint" />
          </mxGeometry>
        </mxCell>
        <mxCell id="2hEy3VEk0m3lQvkDzE6Z-122" value="" style="endArrow=none;html=1;exitX=1;exitY=0.5;exitDx=0;exitDy=0;entryX=0;entryY=0.5;entryDx=0;entryDy=0;" parent="1" source="2hEy3VEk0m3lQvkDzE6Z-100" target="2hEy3VEk0m3lQvkDzE6Z-108" edge="1">
          <mxGeometry width="50" height="50" relative="1" as="geometry">
            <mxPoint x="370" y="424" as="sourcePoint" />
            <mxPoint x="420" y="374" as="targetPoint" />
          </mxGeometry>
        </mxCell>
        <mxCell id="2hEy3VEk0m3lQvkDzE6Z-124" value="" style="ellipse;whiteSpace=wrap;html=1;aspect=fixed;fillColor=#f5f5f5;strokeColor=#666666;gradientColor=#b3b3b3;" parent="1" vertex="1">
          <mxGeometry x="352" y="385" width="20" height="20" as="geometry" />
        </mxCell>
        <mxCell id="2hEy3VEk0m3lQvkDzE6Z-125" value="" style="ellipse;whiteSpace=wrap;html=1;aspect=fixed;fillColor=#f5f5f5;strokeColor=#666666;gradientColor=#b3b3b3;" parent="1" vertex="1">
          <mxGeometry x="384" y="400" width="20" height="20" as="geometry" />
        </mxCell>
        <mxCell id="2hEy3VEk0m3lQvkDzE6Z-126" value="" style="ellipse;whiteSpace=wrap;html=1;aspect=fixed;fillColor=#ffcccc;strokeColor=#36393d;" parent="1" vertex="1">
          <mxGeometry x="313" y="400" width="20" height="20" as="geometry" />
        </mxCell>
        <mxCell id="2hEy3VEk0m3lQvkDzE6Z-127" value="" style="ellipse;whiteSpace=wrap;html=1;aspect=fixed;fillColor=#ffcccc;strokeColor=#36393d;" parent="1" vertex="1">
          <mxGeometry x="312" y="452" width="20" height="20" as="geometry" />
        </mxCell>
        <mxCell id="2hEy3VEk0m3lQvkDzE6Z-130" value="" style="endArrow=none;html=1;entryX=1;entryY=0.5;entryDx=0;entryDy=0;exitX=0;exitY=0;exitDx=0;exitDy=0;" parent="1" source="2hEy3VEk0m3lQvkDzE6Z-125" target="2hEy3VEk0m3lQvkDzE6Z-124" edge="1">
          <mxGeometry width="50" height="50" relative="1" as="geometry">
            <mxPoint x="367" y="430" as="sourcePoint" />
            <mxPoint x="417" y="380" as="targetPoint" />
          </mxGeometry>
        </mxCell>
        <mxCell id="2hEy3VEk0m3lQvkDzE6Z-131" value="" style="endArrow=none;html=1;entryX=0;entryY=0.5;entryDx=0;entryDy=0;exitX=1;exitY=0;exitDx=0;exitDy=0;" parent="1" source="2hEy3VEk0m3lQvkDzE6Z-126" target="2hEy3VEk0m3lQvkDzE6Z-124" edge="1">
          <mxGeometry width="50" height="50" relative="1" as="geometry">
            <mxPoint x="367" y="430" as="sourcePoint" />
            <mxPoint x="417" y="380" as="targetPoint" />
          </mxGeometry>
        </mxCell>
        <mxCell id="2hEy3VEk0m3lQvkDzE6Z-132" value="" style="endArrow=none;html=1;exitX=1;exitY=0.5;exitDx=0;exitDy=0;entryX=0;entryY=0.5;entryDx=0;entryDy=0;" parent="1" source="2hEy3VEk0m3lQvkDzE6Z-126" target="2hEy3VEk0m3lQvkDzE6Z-125" edge="1">
          <mxGeometry width="50" height="50" relative="1" as="geometry">
            <mxPoint x="367" y="430" as="sourcePoint" />
            <mxPoint x="387" y="420" as="targetPoint" />
          </mxGeometry>
        </mxCell>
        <mxCell id="2hEy3VEk0m3lQvkDzE6Z-133" value="" style="ellipse;whiteSpace=wrap;html=1;aspect=fixed;fillColor=#ffcccc;strokeColor=#36393d;" parent="1" vertex="1">
          <mxGeometry x="305" y="488" width="20" height="20" as="geometry" />
        </mxCell>
        <mxCell id="2hEy3VEk0m3lQvkDzE6Z-134" value="" style="ellipse;whiteSpace=wrap;html=1;aspect=fixed;fillColor=#ffcccc;strokeColor=#36393d;" parent="1" vertex="1">
          <mxGeometry x="352" y="462" width="20" height="20" as="geometry" />
        </mxCell>
        <mxCell id="2hEy3VEk0m3lQvkDzE6Z-135" value="" style="ellipse;whiteSpace=wrap;html=1;aspect=fixed;fillColor=#ffcccc;strokeColor=#36393d;" parent="1" vertex="1">
          <mxGeometry x="342" y="501" width="20" height="20" as="geometry" />
        </mxCell>
        <mxCell id="2hEy3VEk0m3lQvkDzE6Z-139" value="" style="ellipse;whiteSpace=wrap;html=1;aspect=fixed;fillColor=#f5f5f5;strokeColor=#666666;gradientColor=#b3b3b3;" parent="1" vertex="1">
          <mxGeometry x="391" y="492" width="20" height="20" as="geometry" />
        </mxCell>
        <mxCell id="2hEy3VEk0m3lQvkDzE6Z-140" value="" style="ellipse;whiteSpace=wrap;html=1;aspect=fixed;fillColor=#f5f5f5;strokeColor=#666666;gradientColor=#b3b3b3;" parent="1" vertex="1">
          <mxGeometry x="394" y="453.5" width="20" height="20" as="geometry" />
        </mxCell>
        <mxCell id="2hEy3VEk0m3lQvkDzE6Z-142" value="" style="endArrow=none;html=1;entryX=0;entryY=0.5;entryDx=0;entryDy=0;exitX=1;exitY=0.5;exitDx=0;exitDy=0;" parent="1" source="2hEy3VEk0m3lQvkDzE6Z-134" target="2hEy3VEk0m3lQvkDzE6Z-140" edge="1">
          <mxGeometry width="50" height="50" relative="1" as="geometry">
            <mxPoint x="367" y="427" as="sourcePoint" />
            <mxPoint x="417" y="377" as="targetPoint" />
          </mxGeometry>
        </mxCell>
        <mxCell id="2hEy3VEk0m3lQvkDzE6Z-143" value="" style="endArrow=none;html=1;entryX=0;entryY=0.5;entryDx=0;entryDy=0;exitX=1;exitY=1;exitDx=0;exitDy=0;" parent="1" source="2hEy3VEk0m3lQvkDzE6Z-134" target="2hEy3VEk0m3lQvkDzE6Z-139" edge="1">
          <mxGeometry width="50" height="50" relative="1" as="geometry">
            <mxPoint x="367" y="427" as="sourcePoint" />
            <mxPoint x="417" y="377" as="targetPoint" />
          </mxGeometry>
        </mxCell>
        <mxCell id="2hEy3VEk0m3lQvkDzE6Z-144" value="" style="endArrow=none;html=1;entryX=0.5;entryY=1;entryDx=0;entryDy=0;exitX=0.5;exitY=0;exitDx=0;exitDy=0;" parent="1" source="2hEy3VEk0m3lQvkDzE6Z-139" target="2hEy3VEk0m3lQvkDzE6Z-140" edge="1">
          <mxGeometry width="50" height="50" relative="1" as="geometry">
            <mxPoint x="367" y="427" as="sourcePoint" />
            <mxPoint x="417" y="377" as="targetPoint" />
          </mxGeometry>
        </mxCell>
        <mxCell id="2hEy3VEk0m3lQvkDzE6Z-146" value="" style="endArrow=none;html=1;entryX=0.5;entryY=0;entryDx=0;entryDy=0;exitX=0.5;exitY=1;exitDx=0;exitDy=0;" parent="1" source="2hEy3VEk0m3lQvkDzE6Z-134" target="2hEy3VEk0m3lQvkDzE6Z-135" edge="1">
          <mxGeometry width="50" height="50" relative="1" as="geometry">
            <mxPoint x="367" y="427" as="sourcePoint" />
            <mxPoint x="417" y="377" as="targetPoint" />
          </mxGeometry>
        </mxCell>
        <mxCell id="2hEy3VEk0m3lQvkDzE6Z-147" value="" style="endArrow=none;html=1;exitX=1;exitY=0.5;exitDx=0;exitDy=0;entryX=0;entryY=0.5;entryDx=0;entryDy=0;" parent="1" source="2hEy3VEk0m3lQvkDzE6Z-127" target="2hEy3VEk0m3lQvkDzE6Z-134" edge="1">
          <mxGeometry width="50" height="50" relative="1" as="geometry">
            <mxPoint x="367" y="427" as="sourcePoint" />
            <mxPoint x="417" y="377" as="targetPoint" />
          </mxGeometry>
        </mxCell>
        <mxCell id="2hEy3VEk0m3lQvkDzE6Z-148" value="" style="endArrow=none;html=1;exitX=1;exitY=1;exitDx=0;exitDy=0;entryX=0;entryY=0;entryDx=0;entryDy=0;" parent="1" source="2hEy3VEk0m3lQvkDzE6Z-127" target="2hEy3VEk0m3lQvkDzE6Z-135" edge="1">
          <mxGeometry width="50" height="50" relative="1" as="geometry">
            <mxPoint x="367" y="427" as="sourcePoint" />
            <mxPoint x="347" y="497" as="targetPoint" />
          </mxGeometry>
        </mxCell>
        <mxCell id="2hEy3VEk0m3lQvkDzE6Z-149" value="" style="endArrow=none;html=1;entryX=0.5;entryY=1;entryDx=0;entryDy=0;exitX=0.5;exitY=0;exitDx=0;exitDy=0;" parent="1" source="2hEy3VEk0m3lQvkDzE6Z-133" target="2hEy3VEk0m3lQvkDzE6Z-127" edge="1">
          <mxGeometry width="50" height="50" relative="1" as="geometry">
            <mxPoint x="367" y="427" as="sourcePoint" />
            <mxPoint x="417" y="377" as="targetPoint" />
          </mxGeometry>
        </mxCell>
        <mxCell id="2hEy3VEk0m3lQvkDzE6Z-150" value="" style="endArrow=none;html=1;exitX=1;exitY=0.5;exitDx=0;exitDy=0;entryX=0;entryY=0.5;entryDx=0;entryDy=0;" parent="1" source="2hEy3VEk0m3lQvkDzE6Z-112" target="2hEy3VEk0m3lQvkDzE6Z-133" edge="1">
          <mxGeometry width="50" height="50" relative="1" as="geometry">
            <mxPoint x="370" y="430" as="sourcePoint" />
            <mxPoint x="420" y="380" as="targetPoint" />
          </mxGeometry>
        </mxCell>
        <mxCell id="2hEy3VEk0m3lQvkDzE6Z-151" value="" style="endArrow=none;html=1;exitX=0.5;exitY=0;exitDx=0;exitDy=0;" parent="1" source="2hEy3VEk0m3lQvkDzE6Z-134" edge="1">
          <mxGeometry width="50" height="50" relative="1" as="geometry">
            <mxPoint x="367" y="427" as="sourcePoint" />
            <mxPoint x="327" y="420" as="targetPoint" />
          </mxGeometry>
        </mxCell>
        <mxCell id="2hEy3VEk0m3lQvkDzE6Z-152" value="" style="endArrow=none;html=1;exitX=0.5;exitY=1;exitDx=0;exitDy=0;entryX=0.5;entryY=0;entryDx=0;entryDy=0;" parent="1" source="2hEy3VEk0m3lQvkDzE6Z-125" target="2hEy3VEk0m3lQvkDzE6Z-140" edge="1">
          <mxGeometry width="50" height="50" relative="1" as="geometry">
            <mxPoint x="367" y="427" as="sourcePoint" />
            <mxPoint x="417" y="377" as="targetPoint" />
          </mxGeometry>
        </mxCell>
        <mxCell id="2hEy3VEk0m3lQvkDzE6Z-153" value="" style="endArrow=none;html=1;entryX=1;entryY=1;entryDx=0;entryDy=0;exitX=0.5;exitY=0;exitDx=0;exitDy=0;" parent="1" source="2hEy3VEk0m3lQvkDzE6Z-125" target="2hEy3VEk0m3lQvkDzE6Z-64" edge="1">
          <mxGeometry width="50" height="50" relative="1" as="geometry">
            <mxPoint x="370" y="430" as="sourcePoint" />
            <mxPoint x="420" y="380" as="targetPoint" />
          </mxGeometry>
        </mxCell>
        <mxCell id="2hEy3VEk0m3lQvkDzE6Z-154" value="" style="endArrow=none;html=1;entryX=0.5;entryY=0;entryDx=0;entryDy=0;exitX=1;exitY=1;exitDx=0;exitDy=0;" parent="1" source="2hEy3VEk0m3lQvkDzE6Z-44" target="2hEy3VEk0m3lQvkDzE6Z-64" edge="1">
          <mxGeometry width="50" height="50" relative="1" as="geometry">
            <mxPoint x="388" y="426" as="sourcePoint" />
            <mxPoint x="438" y="376" as="targetPoint" />
          </mxGeometry>
        </mxCell>
        <mxCell id="2hEy3VEk0m3lQvkDzE6Z-159" value="" style="endArrow=none;html=1;exitX=1;exitY=0;exitDx=0;exitDy=0;entryX=0.5;entryY=1;entryDx=0;entryDy=0;" parent="1" source="2hEy3VEk0m3lQvkDzE6Z-100" target="2hEy3VEk0m3lQvkDzE6Z-82" edge="1">
          <mxGeometry width="50" height="50" relative="1" as="geometry">
            <mxPoint x="370" y="430" as="sourcePoint" />
            <mxPoint x="420" y="380" as="targetPoint" />
          </mxGeometry>
        </mxCell>
        <mxCell id="2hEy3VEk0m3lQvkDzE6Z-160" value="" style="endArrow=none;html=1;entryX=1;entryY=0;entryDx=0;entryDy=0;exitX=0;exitY=1;exitDx=0;exitDy=0;" parent="1" source="2hEy3VEk0m3lQvkDzE6Z-82" target="2hEy3VEk0m3lQvkDzE6Z-91" edge="1">
          <mxGeometry width="50" height="50" relative="1" as="geometry">
            <mxPoint x="370" y="430" as="sourcePoint" />
            <mxPoint x="420" y="380" as="targetPoint" />
          </mxGeometry>
        </mxCell>
        <mxCell id="2hEy3VEk0m3lQvkDzE6Z-161" value="" style="endArrow=none;html=1;exitX=1;exitY=0.5;exitDx=0;exitDy=0;entryX=0;entryY=1;entryDx=0;entryDy=0;" parent="1" source="2hEy3VEk0m3lQvkDzE6Z-93" target="2hEy3VEk0m3lQvkDzE6Z-83" edge="1">
          <mxGeometry width="50" height="50" relative="1" as="geometry">
            <mxPoint x="370" y="430" as="sourcePoint" />
            <mxPoint x="120" y="417" as="targetPoint" />
          </mxGeometry>
        </mxCell>
        <mxCell id="2hEy3VEk0m3lQvkDzE6Z-162" value="" style="endArrow=none;html=1;exitX=0.5;exitY=0;exitDx=0;exitDy=0;" parent="1" source="2hEy3VEk0m3lQvkDzE6Z-81" edge="1">
          <mxGeometry width="50" height="50" relative="1" as="geometry">
            <mxPoint x="370" y="430" as="sourcePoint" />
            <mxPoint x="130" y="318" as="targetPoint" />
          </mxGeometry>
        </mxCell>
        <mxCell id="2hEy3VEk0m3lQvkDzE6Z-165" value="" style="endArrow=none;html=1;entryX=1;entryY=1;entryDx=0;entryDy=0;" parent="1" target="2hEy3VEk0m3lQvkDzE6Z-27" edge="1">
          <mxGeometry width="50" height="50" relative="1" as="geometry">
            <mxPoint x="316" y="408" as="sourcePoint" />
            <mxPoint x="212" y="320" as="targetPoint" />
          </mxGeometry>
        </mxCell>
        <mxCell id="2hEy3VEk0m3lQvkDzE6Z-166" value="" style="endArrow=none;html=1;exitX=1;exitY=0.5;exitDx=0;exitDy=0;" parent="1" source="2hEy3VEk0m3lQvkDzE6Z-34" edge="1">
          <mxGeometry width="50" height="50" relative="1" as="geometry">
            <mxPoint x="273" y="316" as="sourcePoint" />
            <mxPoint x="323" y="266" as="targetPoint" />
          </mxGeometry>
        </mxCell>
        <mxCell id="2hEy3VEk0m3lQvkDzE6Z-167" value="" style="endArrow=none;html=1;entryX=1;entryY=1;entryDx=0;entryDy=0;exitX=1;exitY=0;exitDx=0;exitDy=0;" parent="1" source="2hEy3VEk0m3lQvkDzE6Z-27" target="2hEy3VEk0m3lQvkDzE6Z-34" edge="1">
          <mxGeometry width="50" height="50" relative="1" as="geometry">
            <mxPoint x="370" y="430" as="sourcePoint" />
            <mxPoint x="420" y="380" as="targetPoint" />
          </mxGeometry>
        </mxCell>
        <mxCell id="2hEy3VEk0m3lQvkDzE6Z-188" value="InfoE" style="text;html=1;resizable=0;autosize=1;align=center;verticalAlign=middle;points=[];fillColor=none;strokeColor=none;rounded=0;dashed=1;" parent="1" vertex="1">
          <mxGeometry x="182" y="326" width="40" height="20" as="geometry" />
        </mxCell>
        <mxCell id="2hEy3VEk0m3lQvkDzE6Z-189" value="" style="endArrow=none;html=1;entryX=1;entryY=0.5;entryDx=0;entryDy=0;exitX=0;exitY=0.5;exitDx=0;exitDy=0;" parent="1" source="2hEy3VEk0m3lQvkDzE6Z-66" target="2hEy3VEk0m3lQvkDzE6Z-27" edge="1">
          <mxGeometry width="50" height="50" relative="1" as="geometry">
            <mxPoint x="314" y="326" as="sourcePoint" />
            <mxPoint x="231.07106781186553" y="282.07106781186553" as="targetPoint" />
          </mxGeometry>
        </mxCell>
        <mxCell id="2hEy3VEk0m3lQvkDzE6Z-190" value="MTrans" style="text;html=1;resizable=0;autosize=1;align=center;verticalAlign=middle;points=[];fillColor=none;strokeColor=none;rounded=0;dashed=1;" parent="1" vertex="1">
          <mxGeometry x="58" y="320" width="60" height="20" as="geometry" />
        </mxCell>
        <mxCell id="2hEy3VEk0m3lQvkDzE6Z-191" value="&lt;b&gt;NLP&lt;/b&gt;" style="text;html=1;resizable=0;autosize=1;align=center;verticalAlign=middle;points=[];fillColor=none;strokeColor=none;rounded=0;dashed=1;" parent="1" vertex="1">
          <mxGeometry x="131" y="203" width="40" height="20" as="geometry" />
        </mxCell>
        <mxCell id="2hEy3VEk0m3lQvkDzE6Z-193" value="&lt;b&gt;CM&lt;/b&gt;" style="text;html=1;resizable=0;autosize=1;align=center;verticalAlign=middle;points=[];fillColor=none;strokeColor=none;rounded=0;dashed=1;" parent="1" vertex="1">
          <mxGeometry x="389" y="270" width="30" height="20" as="geometry" />
        </mxCell>
        <mxCell id="2hEy3VEk0m3lQvkDzE6Z-194" value="RP" style="text;html=1;resizable=0;autosize=1;align=center;verticalAlign=middle;points=[];fillColor=none;strokeColor=none;rounded=0;dashed=1;" parent="1" vertex="1">
          <mxGeometry x="382" y="235" width="30" height="20" as="geometry" />
        </mxCell>
        <mxCell id="2hEy3VEk0m3lQvkDzE6Z-196" value="MPP" style="text;html=1;resizable=0;autosize=1;align=center;verticalAlign=middle;points=[];fillColor=none;strokeColor=none;rounded=0;dashed=1;" parent="1" vertex="1">
          <mxGeometry x="389" y="306" width="40" height="20" as="geometry" />
        </mxCell>
        <mxCell id="2hEy3VEk0m3lQvkDzE6Z-197" value="SL" style="text;html=1;resizable=0;autosize=1;align=center;verticalAlign=middle;points=[];fillColor=none;strokeColor=none;rounded=0;dashed=1;" parent="1" vertex="1">
          <mxGeometry x="348" y="410" width="30" height="20" as="geometry" />
        </mxCell>
        <mxCell id="2hEy3VEk0m3lQvkDzE6Z-199" value="UnSL" style="text;html=1;resizable=0;autosize=1;align=center;verticalAlign=middle;points=[];fillColor=none;strokeColor=none;rounded=0;dashed=1;" parent="1" vertex="1">
          <mxGeometry x="354" y="504" width="50" height="20" as="geometry" />
        </mxCell>
        <mxCell id="2hEy3VEk0m3lQvkDzE6Z-201" value="&lt;b&gt;LP&lt;/b&gt;" style="text;html=1;resizable=0;autosize=1;align=center;verticalAlign=middle;points=[];fillColor=none;strokeColor=none;rounded=0;dashed=1;" parent="1" vertex="1">
          <mxGeometry x="409" y="427" width="30" height="20" as="geometry" />
        </mxCell>
        <mxCell id="2hEy3VEk0m3lQvkDzE6Z-202" value="AL" style="text;html=1;resizable=0;autosize=1;align=center;verticalAlign=middle;points=[];fillColor=none;strokeColor=none;rounded=0;dashed=1;" parent="1" vertex="1">
          <mxGeometry x="97" y="495" width="30" height="20" as="geometry" />
        </mxCell>
        <mxCell id="2hEy3VEk0m3lQvkDzE6Z-203" value="BL" style="text;html=1;resizable=0;autosize=1;align=center;verticalAlign=middle;points=[];fillColor=none;strokeColor=none;rounded=0;dashed=1;" parent="1" vertex="1">
          <mxGeometry x="181" y="420" width="30" height="20" as="geometry" />
        </mxCell>
        <mxCell id="2hEy3VEk0m3lQvkDzE6Z-205" value="TL" style="text;html=1;resizable=0;autosize=1;align=center;verticalAlign=middle;points=[];fillColor=none;strokeColor=none;rounded=0;dashed=1;" parent="1" vertex="1">
          <mxGeometry x="43" y="415" width="30" height="20" as="geometry" />
        </mxCell>
        <mxCell id="2hEy3VEk0m3lQvkDzE6Z-206" value="&lt;b&gt;LS&lt;/b&gt;" style="text;html=1;resizable=0;autosize=1;align=center;verticalAlign=middle;points=[];fillColor=none;strokeColor=none;rounded=0;dashed=1;" parent="1" vertex="1">
          <mxGeometry x="48" y="481" width="30" height="20" as="geometry" />
        </mxCell>
        <mxCell id="2hEy3VEk0m3lQvkDzE6Z-208" value="" style="html=1;shadow=0;dashed=0;align=center;verticalAlign=middle;shape=mxgraph.arrows2.twoWayArrow;dy=0.6;dx=35;strokeWidth=1;" parent="1" vertex="1">
          <mxGeometry x="208" y="524" width="100" height="10" as="geometry" />
        </mxCell>
        <mxCell id="2hEy3VEk0m3lQvkDzE6Z-209" value="&lt;b&gt;Machine Learning&lt;/b&gt;" style="text;html=1;resizable=0;autosize=1;align=center;verticalAlign=middle;points=[];fillColor=none;strokeColor=none;rounded=0;dashed=1;" parent="1" vertex="1">
          <mxGeometry x="197" y="534" width="120" height="20" as="geometry" />
        </mxCell>
        <mxCell id="2hEy3VEk0m3lQvkDzE6Z-210" value="" style="html=1;shadow=0;dashed=0;align=center;verticalAlign=middle;shape=mxgraph.arrows2.twoWayArrow;dy=0.6;dx=35;strokeWidth=1;" parent="1" vertex="1">
          <mxGeometry x="228" y="204" width="80" height="10" as="geometry" />
        </mxCell>
        <mxCell id="2hEy3VEk0m3lQvkDzE6Z-211" value="&lt;span style=&quot;color: rgb(51 , 51 , 51) ; font-family: &amp;#34;arial&amp;#34; , &amp;#34;microsoft yahei&amp;#34; , &amp;#34;\\5fae软雅黑&amp;#34; , &amp;#34;\\5b8b体&amp;#34; , &amp;#34;malgun gothic&amp;#34; , &amp;#34;meiryo&amp;#34; , sans-serif ; line-height: 14px ; text-align: left ; background-color: rgb(255 , 255 , 255)&quot;&gt;&lt;font style=&quot;font-size: 12px&quot;&gt;&lt;b&gt;Artificial Intelligence&lt;/b&gt;&lt;/font&gt;&lt;/span&gt;" style="text;html=1;resizable=0;autosize=1;align=center;verticalAlign=middle;points=[];fillColor=none;strokeColor=none;rounded=0;dashed=1;" parent="1" vertex="1">
          <mxGeometry x="200" y="184" width="130" height="20" as="geometry" />
        </mxCell>
        <mxCell id="2hEy3VEk0m3lQvkDzE6Z-216" value="&lt;div style=&quot;text-align: left ; font-size: 14px&quot;&gt;&lt;font style=&quot;font-size: 14px&quot;&gt;&lt;b&gt;MTrans&lt;/b&gt;:&amp;nbsp;Machine Translation&lt;/font&gt;&lt;/div&gt;" style="text;html=1;resizable=0;autosize=1;align=center;verticalAlign=middle;points=[];fillColor=none;strokeColor=none;rounded=0;dashed=1;" parent="1" vertex="1">
          <mxGeometry x="510" y="221" width="200" height="20" as="geometry" />
        </mxCell>
        <mxCell id="2hEy3VEk0m3lQvkDzE6Z-219" value="&lt;span style=&quot;box-sizing: border-box ; font-family: &amp;#34;arial&amp;#34; , &amp;#34;microsoft yahei&amp;#34; , &amp;#34;\\5fae软雅黑&amp;#34; , &amp;#34;\\5b8b体&amp;#34; , &amp;#34;malgun gothic&amp;#34; , &amp;#34;meiryo&amp;#34; , sans-serif ; font-size: 14px ; line-height: 14px ; text-align: left ; background-color: rgb(255 , 255 , 255)&quot;&gt;&lt;b&gt;NLP&lt;/b&gt;:&amp;nbsp; &amp;nbsp;Natural Language Processing&lt;/span&gt;" style="text;html=1;resizable=0;autosize=1;align=center;verticalAlign=middle;points=[];fillColor=none;strokeColor=none;rounded=0;dashed=1;" parent="1" vertex="1">
          <mxGeometry x="513" y="276" width="240" height="20" as="geometry" />
        </mxCell>
        <mxCell id="2hEy3VEk0m3lQvkDzE6Z-220" value="&lt;div style=&quot;text-align: left&quot;&gt;&lt;font style=&quot;font-size: 14px&quot;&gt;&lt;b&gt;InfoE&lt;/b&gt;:&amp;nbsp; &amp;nbsp;Information Extraction&lt;/font&gt;&lt;/div&gt;" style="text;html=1;resizable=0;autosize=1;align=center;verticalAlign=middle;points=[];fillColor=none;strokeColor=none;rounded=0;dashed=1;" parent="1" vertex="1">
          <mxGeometry x="514" y="248" width="200" height="20" as="geometry" />
        </mxCell>
        <mxCell id="2hEy3VEk0m3lQvkDzE6Z-221" value="&lt;div style=&quot;text-align: left&quot;&gt;&lt;font face=&quot;arial, microsoft yahei, \\5fae软雅黑, \\5b8b体, malgun gothic, meiryo, sans-serif&quot;&gt;&lt;span style=&quot;font-size: 14px ; background-color: rgb(255 , 255 , 255)&quot;&gt;&lt;b&gt;RP:&amp;nbsp; &amp;nbsp; &amp;nbsp;&lt;/b&gt;&lt;/span&gt;&lt;/font&gt;&lt;span style=&quot;font-family: &amp;#34;arial&amp;#34; , &amp;#34;microsoft yahei&amp;#34; , &amp;#34;\\5fae软雅黑&amp;#34; , &amp;#34;\\5b8b体&amp;#34; , &amp;#34;malgun gothic&amp;#34; , &amp;#34;meiryo&amp;#34; , sans-serif ; font-size: 14px&quot;&gt;Robotic Planning&lt;/span&gt;&lt;/div&gt;" style="text;html=1;resizable=0;autosize=1;align=center;verticalAlign=middle;points=[];fillColor=none;strokeColor=none;rounded=0;dashed=1;" parent="1" vertex="1">
          <mxGeometry x="514" y="302" width="160" height="20" as="geometry" />
        </mxCell>
        <mxCell id="2hEy3VEk0m3lQvkDzE6Z-222" value="&lt;span style=&quot;box-sizing: border-box ; font-family: &amp;#34;arial&amp;#34; , &amp;#34;microsoft yahei&amp;#34; , &amp;#34;\\5fae软雅黑&amp;#34; , &amp;#34;\\5b8b体&amp;#34; , &amp;#34;malgun gothic&amp;#34; , &amp;#34;meiryo&amp;#34; , sans-serif ; font-size: 14px ; line-height: 14px ; text-align: left ; background-color: rgb(255 , 255 , 255)&quot;&gt;&lt;b&gt;MPP&lt;/b&gt;:&amp;nbsp; &amp;nbsp;Motion Path Planning&lt;/span&gt;" style="text;html=1;resizable=0;autosize=1;align=center;verticalAlign=middle;points=[];fillColor=none;strokeColor=none;rounded=0;dashed=1;" parent="1" vertex="1">
          <mxGeometry x="514" y="327" width="190" height="20" as="geometry" />
        </mxCell>
        <mxCell id="2hEy3VEk0m3lQvkDzE6Z-223" value="&lt;span style=&quot;box-sizing: border-box ; font-family: &amp;#34;arial&amp;#34; , &amp;#34;microsoft yahei&amp;#34; , &amp;#34;\\5fae软雅黑&amp;#34; , &amp;#34;\\5b8b体&amp;#34; , &amp;#34;malgun gothic&amp;#34; , &amp;#34;meiryo&amp;#34; , sans-serif ; font-size: 14px ; line-height: 14px ; text-align: left ; background-color: rgb(255 , 255 , 255)&quot;&gt;&lt;b&gt;CM&lt;/b&gt;:&amp;nbsp; &amp;nbsp; &amp;nbsp;Control Methods&lt;/span&gt;" style="text;html=1;resizable=0;autosize=1;align=center;verticalAlign=middle;points=[];fillColor=none;strokeColor=none;rounded=0;dashed=1;" parent="1" vertex="1">
          <mxGeometry x="513" y="351" width="160" height="20" as="geometry" />
        </mxCell>
        <mxCell id="2hEy3VEk0m3lQvkDzE6Z-224" value="&lt;span style=&quot;box-sizing: border-box ; font-family: &amp;#34;arial&amp;#34; , &amp;#34;microsoft yahei&amp;#34; , &amp;#34;\\5fae软雅黑&amp;#34; , &amp;#34;\\5b8b体&amp;#34; , &amp;#34;malgun gothic&amp;#34; , &amp;#34;meiryo&amp;#34; , sans-serif ; font-size: 14px ; line-height: 14px ; text-align: left ; background-color: rgb(255 , 255 , 255)&quot;&gt;&lt;b&gt;TL&lt;/b&gt;:&amp;nbsp; &amp;nbsp; &amp;nbsp; Transfer Learning&lt;/span&gt;" style="text;html=1;resizable=0;autosize=1;align=center;verticalAlign=middle;points=[];fillColor=none;strokeColor=none;rounded=0;dashed=1;" parent="1" vertex="1">
          <mxGeometry x="512" y="376" width="170" height="20" as="geometry" />
        </mxCell>
        <mxCell id="2hEy3VEk0m3lQvkDzE6Z-225" value="&lt;span style=&quot;box-sizing: border-box ; font-family: &amp;#34;arial&amp;#34; , &amp;#34;microsoft yahei&amp;#34; , &amp;#34;\\5fae软雅黑&amp;#34; , &amp;#34;\\5b8b体&amp;#34; , &amp;#34;malgun gothic&amp;#34; , &amp;#34;meiryo&amp;#34; , sans-serif ; font-size: 14px ; line-height: 14px ; text-align: left ; background-color: rgb(255 , 255 , 255)&quot;&gt;&lt;b&gt;BL&lt;/b&gt;:&amp;nbsp; &amp;nbsp; &amp;nbsp; Batch Learning&lt;/span&gt;" style="text;html=1;resizable=0;autosize=1;align=center;verticalAlign=middle;points=[];fillColor=none;strokeColor=none;rounded=0;dashed=1;" parent="1" vertex="1">
          <mxGeometry x="510" y="400" width="160" height="20" as="geometry" />
        </mxCell>
        <mxCell id="2hEy3VEk0m3lQvkDzE6Z-226" value="&lt;span style=&quot;box-sizing: border-box ; font-family: &amp;#34;arial&amp;#34; , &amp;#34;microsoft yahei&amp;#34; , &amp;#34;\\5fae软雅黑&amp;#34; , &amp;#34;\\5b8b体&amp;#34; , &amp;#34;malgun gothic&amp;#34; , &amp;#34;meiryo&amp;#34; , sans-serif ; font-size: 14px ; line-height: 14px ; text-align: left ; background-color: rgb(255 , 255 , 255)&quot;&gt;&lt;b&gt;AL&lt;/b&gt;:&amp;nbsp; &amp;nbsp; &amp;nbsp; Active Learning&lt;/span&gt;" style="text;html=1;resizable=0;autosize=1;align=center;verticalAlign=middle;points=[];fillColor=none;strokeColor=none;rounded=0;dashed=1;" parent="1" vertex="1">
          <mxGeometry x="512" y="424" width="160" height="20" as="geometry" />
        </mxCell>
        <mxCell id="2hEy3VEk0m3lQvkDzE6Z-227" value="&lt;span style=&quot;box-sizing: border-box ; font-family: &amp;#34;arial&amp;#34; , &amp;#34;microsoft yahei&amp;#34; , &amp;#34;\\5fae软雅黑&amp;#34; , &amp;#34;\\5b8b体&amp;#34; , &amp;#34;malgun gothic&amp;#34; , &amp;#34;meiryo&amp;#34; , sans-serif ; font-size: 14px ; line-height: 14px ; text-align: left ; background-color: rgb(255 , 255 , 255)&quot;&gt;&lt;b&gt;LS&lt;/b&gt;:&amp;nbsp; &amp;nbsp; &amp;nbsp; Learning Settings&lt;/span&gt;" style="text;html=1;resizable=0;autosize=1;align=center;verticalAlign=middle;points=[];fillColor=none;strokeColor=none;rounded=0;dashed=1;" parent="1" vertex="1">
          <mxGeometry x="513" y="448" width="170" height="20" as="geometry" />
        </mxCell>
        <mxCell id="2hEy3VEk0m3lQvkDzE6Z-228" value="&lt;span style=&quot;box-sizing: border-box ; font-family: &amp;#34;arial&amp;#34; , &amp;#34;microsoft yahei&amp;#34; , &amp;#34;\\5fae软雅黑&amp;#34; , &amp;#34;\\5b8b体&amp;#34; , &amp;#34;malgun gothic&amp;#34; , &amp;#34;meiryo&amp;#34; , sans-serif ; font-size: 14px ; line-height: 14px ; text-align: left ; background-color: rgb(255 , 255 , 255)&quot;&gt;&lt;b&gt;SL&lt;/b&gt;:&amp;nbsp; &amp;nbsp; &amp;nbsp; Supervised Learning&lt;/span&gt;" style="text;html=1;resizable=0;autosize=1;align=center;verticalAlign=middle;points=[];fillColor=none;strokeColor=none;rounded=0;dashed=1;" parent="1" vertex="1">
          <mxGeometry x="512" y="471" width="190" height="20" as="geometry" />
        </mxCell>
        <mxCell id="2hEy3VEk0m3lQvkDzE6Z-229" value="&lt;span style=&quot;box-sizing: border-box ; font-family: &amp;#34;arial&amp;#34; , &amp;#34;microsoft yahei&amp;#34; , &amp;#34;\\5fae软雅黑&amp;#34; , &amp;#34;\\5b8b体&amp;#34; , &amp;#34;malgun gothic&amp;#34; , &amp;#34;meiryo&amp;#34; , sans-serif ; font-size: 14px ; line-height: 14px ; text-align: left ; background-color: rgb(255 , 255 , 255)&quot;&gt;&lt;b&gt;UnSL&lt;/b&gt;:&amp;nbsp; Unsupervised Learning&lt;/span&gt;" style="text;html=1;resizable=0;autosize=1;align=center;verticalAlign=middle;points=[];fillColor=none;strokeColor=none;rounded=0;dashed=1;" parent="1" vertex="1">
          <mxGeometry x="511" y="494" width="210" height="20" as="geometry" />
        </mxCell>
        <mxCell id="2hEy3VEk0m3lQvkDzE6Z-230" value="&lt;span style=&quot;box-sizing: border-box ; font-family: &amp;#34;arial&amp;#34; , &amp;#34;microsoft yahei&amp;#34; , &amp;#34;\\5fae软雅黑&amp;#34; , &amp;#34;\\5b8b体&amp;#34; , &amp;#34;malgun gothic&amp;#34; , &amp;#34;meiryo&amp;#34; , sans-serif ; font-size: 14px ; line-height: 14px ; text-align: left ; background-color: rgb(255 , 255 , 255)&quot;&gt;&lt;b&gt;LP&lt;/b&gt;:&amp;nbsp; &amp;nbsp; &amp;nbsp; &amp;nbsp;Learning paradigms&lt;/span&gt;" style="text;html=1;resizable=0;autosize=1;align=center;verticalAlign=middle;points=[];fillColor=none;strokeColor=none;rounded=0;dashed=1;" parent="1" vertex="1">
          <mxGeometry x="512" y="518" width="190" height="20" as="geometry" />
        </mxCell>
        <mxCell id="hJViARgkB2FoWMajNkoL-259" value="Start" style="ellipse" parent="1" vertex="1">
          <mxGeometry x="264" y="-390" width="80" height="30" as="geometry" />
        </mxCell>
        <mxCell id="hJViARgkB2FoWMajNkoL-260" value="Entry" style="rounded=1;" parent="1" vertex="1">
          <mxGeometry x="192" y="-310" width="80" height="30" as="geometry" />
        </mxCell>
        <mxCell id="hJViARgkB2FoWMajNkoL-262" value="Entry" style="rounded=1;" parent="1" vertex="1">
          <mxGeometry x="330" y="-310" width="80" height="30" as="geometry" />
        </mxCell>
        <mxCell id="hJViARgkB2FoWMajNkoL-264" value="Entry" style="rounded=1;" parent="1" vertex="1">
          <mxGeometry x="54" y="-230" width="80" height="30" as="geometry" />
        </mxCell>
        <mxCell id="hJViARgkB2FoWMajNkoL-265" value="" style="edgeStyle=elbowEdgeStyle;elbow=vertical;" parent="1" source="hJViARgkB2FoWMajNkoL-260" target="hJViARgkB2FoWMajNkoL-264" edge="1">
          <mxGeometry relative="1" as="geometry" />
        </mxCell>
        <mxCell id="hJViARgkB2FoWMajNkoL-266" value="Entry" style="rounded=1;" parent="1" vertex="1">
          <mxGeometry x="174" y="-230" width="80" height="30" as="geometry" />
        </mxCell>
        <mxCell id="hJViARgkB2FoWMajNkoL-267" value="" style="edgeStyle=elbowEdgeStyle;elbow=vertical;" parent="1" source="hJViARgkB2FoWMajNkoL-260" target="hJViARgkB2FoWMajNkoL-266" edge="1">
          <mxGeometry relative="1" as="geometry" />
        </mxCell>
        <mxCell id="hJViARgkB2FoWMajNkoL-268" value="Entry" style="rounded=1;" parent="1" vertex="1">
          <mxGeometry x="294" y="-230" width="80" height="30" as="geometry" />
        </mxCell>
        <mxCell id="hJViARgkB2FoWMajNkoL-269" value="" style="edgeStyle=elbowEdgeStyle;elbow=vertical;" parent="1" source="hJViARgkB2FoWMajNkoL-262" target="hJViARgkB2FoWMajNkoL-268" edge="1">
          <mxGeometry relative="1" as="geometry" />
        </mxCell>
        <mxCell id="hJViARgkB2FoWMajNkoL-270" value="Entry" style="rounded=1;" parent="1" vertex="1">
          <mxGeometry x="414" y="-230" width="80" height="30" as="geometry" />
        </mxCell>
        <mxCell id="hJViARgkB2FoWMajNkoL-271" value="" style="edgeStyle=elbowEdgeStyle;elbow=vertical;" parent="1" source="hJViARgkB2FoWMajNkoL-262" target="hJViARgkB2FoWMajNkoL-270" edge="1">
          <mxGeometry relative="1" as="geometry" />
        </mxCell>
        <mxCell id="hJViARgkB2FoWMajNkoL-272" value="Entry" style="rounded=1;" parent="1" vertex="1">
          <mxGeometry x="294" y="-150" width="80" height="30" as="geometry" />
        </mxCell>
        <mxCell id="hJViARgkB2FoWMajNkoL-273" value="" style="edgeStyle=elbowEdgeStyle;elbow=vertical;" parent="1" source="hJViARgkB2FoWMajNkoL-268" target="hJViARgkB2FoWMajNkoL-272" edge="1">
          <mxGeometry relative="1" as="geometry" />
        </mxCell>
        <mxCell id="hJViARgkB2FoWMajNkoL-275" value="" style="edgeStyle=elbowEdgeStyle;elbow=vertical;strokeColor=none;rounded=0;" parent="1" source="hJViARgkB2FoWMajNkoL-262" edge="1">
          <mxGeometry relative="1" as="geometry">
            <mxPoint x="574" y="-230" as="targetPoint" />
          </mxGeometry>
        </mxCell>
        <mxCell id="hJViARgkB2FoWMajNkoL-276" value="Entry" style="rounded=1;" parent="1" vertex="1">
          <mxGeometry x="234" y="-70" width="80" height="30" as="geometry" />
        </mxCell>
        <mxCell id="hJViARgkB2FoWMajNkoL-277" value="" style="edgeStyle=elbowEdgeStyle;elbow=vertical;" parent="1" source="hJViARgkB2FoWMajNkoL-272" target="hJViARgkB2FoWMajNkoL-276" edge="1">
          <mxGeometry relative="1" as="geometry" />
        </mxCell>
        <mxCell id="hJViARgkB2FoWMajNkoL-278" value="Entry" style="rounded=1;" parent="1" vertex="1">
          <mxGeometry x="354" y="-70" width="80" height="30" as="geometry" />
        </mxCell>
        <mxCell id="hJViARgkB2FoWMajNkoL-279" value="" style="edgeStyle=elbowEdgeStyle;elbow=vertical;" parent="1" source="hJViARgkB2FoWMajNkoL-272" target="hJViARgkB2FoWMajNkoL-278" edge="1">
          <mxGeometry relative="1" as="geometry" />
        </mxCell>
        <mxCell id="hJViARgkB2FoWMajNkoL-280" value="" style="endArrow=none;html=1;exitX=0.5;exitY=1;exitDx=0;exitDy=0;entryX=0.5;entryY=0;entryDx=0;entryDy=0;" parent="1" source="hJViARgkB2FoWMajNkoL-259" target="hJViARgkB2FoWMajNkoL-262" edge="1">
          <mxGeometry width="50" height="50" relative="1" as="geometry">
            <mxPoint x="364" y="-330" as="sourcePoint" />
            <mxPoint x="414" y="-380" as="targetPoint" />
          </mxGeometry>
        </mxCell>
        <mxCell id="hJViARgkB2FoWMajNkoL-281" value="" style="endArrow=none;html=1;exitX=0.5;exitY=0;exitDx=0;exitDy=0;entryX=0.5;entryY=1;entryDx=0;entryDy=0;" parent="1" source="hJViARgkB2FoWMajNkoL-260" target="hJViARgkB2FoWMajNkoL-259" edge="1">
          <mxGeometry width="50" height="50" relative="1" as="geometry">
            <mxPoint x="137" y="-370" as="sourcePoint" />
            <mxPoint x="310" y="-359" as="targetPoint" />
          </mxGeometry>
        </mxCell>
        <mxCell id="Pg9lr5-QLrictl5AOy7z-8" value="" style="ellipse;whiteSpace=wrap;html=1;strokeColor=#82b366;fillColor=#d5e8d4;" vertex="1" parent="1">
          <mxGeometry x="-390" y="756" width="105" height="139" as="geometry" />
        </mxCell>
        <mxCell id="Pg9lr5-QLrictl5AOy7z-56" value="" style="group" vertex="1" connectable="0" parent="1">
          <mxGeometry x="35" y="780" width="425" height="360" as="geometry" />
        </mxCell>
        <mxCell id="Pg9lr5-QLrictl5AOy7z-53" value="" style="group" vertex="1" connectable="0" parent="Pg9lr5-QLrictl5AOy7z-56">
          <mxGeometry x="52.18354430379747" width="286.74050632911394" height="138.67870016234212" as="geometry" />
        </mxCell>
        <mxCell id="Pg9lr5-QLrictl5AOy7z-35" value="MTrans" style="ellipse;whiteSpace=wrap;html=1;strokeColor=#82B366;fillColor=#d5e8d4;" vertex="1" parent="Pg9lr5-QLrictl5AOy7z-53">
          <mxGeometry y="108.96183584184024" width="44.571063159965895" height="29.716864320501884" as="geometry" />
        </mxCell>
        <mxCell id="Pg9lr5-QLrictl5AOy7z-36" value="InfoE" style="ellipse;whiteSpace=wrap;html=1;strokeColor=#6c8ebf;fillColor=#dae8fc;" vertex="1" parent="Pg9lr5-QLrictl5AOy7z-53">
          <mxGeometry x="87.16119017948886" y="108.96183584184024" width="44.571063159965895" height="29.716864320501884" as="geometry" />
        </mxCell>
        <mxCell id="Pg9lr5-QLrictl5AOy7z-37" value="MPP" style="ellipse;whiteSpace=wrap;html=1;strokeColor=#d79b00;fillColor=#FFE6CC;" vertex="1" parent="Pg9lr5-QLrictl5AOy7z-53">
          <mxGeometry x="165.90340176209526" y="108.96183584184024" width="44.571063159965895" height="29.716864320501884" as="geometry" />
        </mxCell>
        <mxCell id="Pg9lr5-QLrictl5AOy7z-38" value="RP" style="ellipse;whiteSpace=wrap;html=1;strokeColor=#b85450;fillColor=#F8CECC;" vertex="1" parent="Pg9lr5-QLrictl5AOy7z-53">
          <mxGeometry x="242.16944316914802" y="108.96183584184024" width="44.571063159965895" height="29.716864320501884" as="geometry" />
        </mxCell>
        <mxCell id="Pg9lr5-QLrictl5AOy7z-40" value="NLP" style="ellipse;whiteSpace=wrap;html=1;strokeColor=#000000;fillColor=#ffffff;" vertex="1" parent="Pg9lr5-QLrictl5AOy7z-53">
          <mxGeometry x="40.60919087908004" y="59.43372864100377" width="44.571063159965895" height="29.716864320501884" as="geometry" />
        </mxCell>
        <mxCell id="Pg9lr5-QLrictl5AOy7z-41" value="CM" style="ellipse;whiteSpace=wrap;html=1;strokeColor=#000000;fillColor=#ffffff;" vertex="1" parent="Pg9lr5-QLrictl5AOy7z-53">
          <mxGeometry x="200.07455018473578" y="59.43372864100377" width="44.571063159965895" height="29.716864320501884" as="geometry" />
        </mxCell>
        <mxCell id="Pg9lr5-QLrictl5AOy7z-42" value="AI" style="ellipse;whiteSpace=wrap;html=1;strokeColor=#000000;fillColor=#ffffff;" vertex="1" parent="Pg9lr5-QLrictl5AOy7z-53">
          <mxGeometry x="119.35140246168645" width="44.571063159965895" height="29.716864320501884" as="geometry" />
        </mxCell>
        <mxCell id="Pg9lr5-QLrictl5AOy7z-43" value="" style="endArrow=none;html=1;exitX=0.5;exitY=0;exitDx=0;exitDy=0;entryX=0;entryY=1;entryDx=0;entryDy=0;" edge="1" parent="Pg9lr5-QLrictl5AOy7z-53" source="Pg9lr5-QLrictl5AOy7z-35" target="Pg9lr5-QLrictl5AOy7z-40">
          <mxGeometry width="50" height="50" relative="1" as="geometry">
            <mxPoint x="-50.51387158129468" y="69.83463115317943" as="sourcePoint" />
            <mxPoint x="-24.761701755536606" y="39.62248576066918" as="targetPoint" />
          </mxGeometry>
        </mxCell>
        <mxCell id="Pg9lr5-QLrictl5AOy7z-44" value="" style="endArrow=none;html=1;entryX=1;entryY=1;entryDx=0;entryDy=0;exitX=0.5;exitY=0;exitDx=0;exitDy=0;" edge="1" parent="Pg9lr5-QLrictl5AOy7z-53" source="Pg9lr5-QLrictl5AOy7z-36" target="Pg9lr5-QLrictl5AOy7z-40">
          <mxGeometry width="50" height="50" relative="1" as="geometry">
            <mxPoint x="103.99914737325375" y="108.96183584184024" as="sourcePoint" />
            <mxPoint x="56.957110456940086" y="94.6479464783755" as="targetPoint" />
            <Array as="points" />
          </mxGeometry>
        </mxCell>
        <mxCell id="Pg9lr5-QLrictl5AOy7z-45" value="" style="endArrow=none;html=1;exitX=0.444;exitY=0;exitDx=0;exitDy=0;entryX=0;entryY=1;entryDx=0;entryDy=0;exitPerimeter=0;" edge="1" parent="Pg9lr5-QLrictl5AOy7z-53" source="Pg9lr5-QLrictl5AOy7z-37" target="Pg9lr5-QLrictl5AOy7z-41">
          <mxGeometry width="50" height="50" relative="1" as="geometry">
            <mxPoint x="153.52255088432696" y="69.33935008117106" as="sourcePoint" />
            <mxPoint x="178.28944905906945" y="45.11983927753903" as="targetPoint" />
          </mxGeometry>
        </mxCell>
        <mxCell id="Pg9lr5-QLrictl5AOy7z-46" value="" style="endArrow=none;html=1;exitX=0.5;exitY=0;exitDx=0;exitDy=0;entryX=1;entryY=1;entryDx=0;entryDy=0;" edge="1" parent="Pg9lr5-QLrictl5AOy7z-53" source="Pg9lr5-QLrictl5AOy7z-38" target="Pg9lr5-QLrictl5AOy7z-41">
          <mxGeometry width="50" height="50" relative="1" as="geometry">
            <mxPoint x="302.09276141754657" y="59.43372864100377" as="sourcePoint" />
            <mxPoint x="326.8544631730832" y="35.66023718460226" as="targetPoint" />
          </mxGeometry>
        </mxCell>
        <mxCell id="Pg9lr5-QLrictl5AOy7z-47" value="" style="endArrow=none;html=1;exitX=0.5;exitY=0;exitDx=0;exitDy=0;entryX=0;entryY=1;entryDx=0;entryDy=0;" edge="1" parent="Pg9lr5-QLrictl5AOy7z-53" source="Pg9lr5-QLrictl5AOy7z-40" target="Pg9lr5-QLrictl5AOy7z-42">
          <mxGeometry width="50" height="50" relative="1" as="geometry">
            <mxPoint x="61.904254388841515" y="148.58432160250942" as="sourcePoint" />
            <mxPoint x="86.671152563584" y="124.36481079887739" as="targetPoint" />
          </mxGeometry>
        </mxCell>
        <mxCell id="Pg9lr5-QLrictl5AOy7z-48" value="" style="endArrow=none;html=1;exitX=0.5;exitY=0;exitDx=0;exitDy=0;entryX=1;entryY=1;entryDx=0;entryDy=0;" edge="1" parent="Pg9lr5-QLrictl5AOy7z-53" source="Pg9lr5-QLrictl5AOy7z-41" target="Pg9lr5-QLrictl5AOy7z-42">
          <mxGeometry width="50" height="50" relative="1" as="geometry">
            <mxPoint x="222.85531579982947" y="9.905621440167295" as="sourcePoint" />
            <mxPoint x="247.62221397457193" y="-14.313889363464739" as="targetPoint" />
          </mxGeometry>
        </mxCell>
        <mxCell id="Pg9lr5-QLrictl5AOy7z-55" value="" style="group" vertex="1" connectable="0" parent="Pg9lr5-QLrictl5AOy7z-56">
          <mxGeometry y="168.39556448284398" width="425" height="191.60443551715602" as="geometry" />
        </mxCell>
        <mxCell id="Pg9lr5-QLrictl5AOy7z-34" value="" style="ellipse;whiteSpace=wrap;html=1;" vertex="1" parent="Pg9lr5-QLrictl5AOy7z-55">
          <mxGeometry x="260.37974683544303" width="164.62025316455694" height="191.60443551715596" as="geometry" />
        </mxCell>
        <mxCell id="Pg9lr5-QLrictl5AOy7z-31" value="" style="ellipse;whiteSpace=wrap;html=1;" vertex="1" parent="Pg9lr5-QLrictl5AOy7z-55">
          <mxGeometry y="5.507525520732961" width="247.46835443037975" height="186.09690999642297" as="geometry" />
        </mxCell>
        <mxCell id="Pg9lr5-QLrictl5AOy7z-19" value="" style="ellipse;whiteSpace=wrap;html=1;strokeColor=#b85450;fillColor=#F8CECC;" vertex="1" parent="Pg9lr5-QLrictl5AOy7z-55">
          <mxGeometry x="284.31962025316454" y="101.53261976171476" width="123.19620253164557" height="76.76856616129653" as="geometry" />
        </mxCell>
        <mxCell id="Pg9lr5-QLrictl5AOy7z-18" value="" style="ellipse;whiteSpace=wrap;html=1;strokeColor=#d79b00;fillColor=#FFE6CC;" vertex="1" parent="Pg9lr5-QLrictl5AOy7z-55">
          <mxGeometry x="277.59493670886076" y="15.84899430426767" width="112.97468354430379" height="85.68362545744709" as="geometry" />
        </mxCell>
        <mxCell id="Pg9lr5-QLrictl5AOy7z-9" value="" style="ellipse;whiteSpace=wrap;html=1;strokeColor=#6c8ebf;fillColor=#dae8fc;" vertex="1" parent="Pg9lr5-QLrictl5AOy7z-55">
          <mxGeometry x="128.0379746835443" y="29.71686432050188" width="112.97468354430379" height="137.6881380183254" as="geometry" />
        </mxCell>
        <mxCell id="hJViARgkB2FoWMajNkoL-127" value="" style="ellipse;whiteSpace=wrap;html=1;fillColor=#d5e8d4;strokeColor=#82B366;" parent="Pg9lr5-QLrictl5AOy7z-55" vertex="1">
          <mxGeometry x="9.683544303797468" y="29.71686432050188" width="112.97468354430379" height="137.6881380183254" as="geometry" />
        </mxCell>
        <mxCell id="hJViARgkB2FoWMajNkoL-132" value="" style="ellipse;whiteSpace=wrap;html=1;aspect=fixed;fillColor=#FFFFFF;" parent="Pg9lr5-QLrictl5AOy7z-55" vertex="1">
          <mxGeometry x="41.962025316455694" y="62.40541507305395" width="19.81124288033459" height="19.81124288033459" as="geometry" />
        </mxCell>
        <mxCell id="hJViARgkB2FoWMajNkoL-133" value="" style="ellipse;whiteSpace=wrap;html=1;aspect=fixed;fillColor=#FFFFFF;direction=south;" parent="Pg9lr5-QLrictl5AOy7z-55" vertex="1">
          <mxGeometry x="9.683544303797468" y="92.12227939355583" width="19.81124288033459" height="19.81124288033459" as="geometry" />
        </mxCell>
        <mxCell id="hJViARgkB2FoWMajNkoL-134" value="" style="ellipse;whiteSpace=wrap;html=1;aspect=fixed;fillColor=#FFFFFF;" parent="Pg9lr5-QLrictl5AOy7z-55" vertex="1">
          <mxGeometry x="36.58227848101266" y="120.84858157004098" width="19.81124288033459" height="19.81124288033459" as="geometry" />
        </mxCell>
        <mxCell id="hJViARgkB2FoWMajNkoL-135" value="" style="ellipse;whiteSpace=wrap;html=1;aspect=fixed;fillColor=#FFFFFF;strokeColor=#000000;" parent="Pg9lr5-QLrictl5AOy7z-55" vertex="1">
          <mxGeometry x="83.92405063291139" y="48.53754505681974" width="19.81124288033459" height="19.81124288033459" as="geometry" />
        </mxCell>
        <mxCell id="hJViARgkB2FoWMajNkoL-136" value="" style="ellipse;whiteSpace=wrap;html=1;aspect=fixed;fillColor=#FFFFFF;strokeColor=#000000;" parent="Pg9lr5-QLrictl5AOy7z-55" vertex="1">
          <mxGeometry x="87.15189873417721" y="92.12227939355583" width="19.81124288033459" height="19.81124288033459" as="geometry" />
        </mxCell>
        <mxCell id="hJViARgkB2FoWMajNkoL-137" value="" style="ellipse;whiteSpace=wrap;html=1;aspect=fixed;fillColor=#FFFFFF;strokeColor=#000000;" parent="Pg9lr5-QLrictl5AOy7z-55" vertex="1">
          <mxGeometry x="77.46835443037975" y="133.72588944225848" width="19.81124288033459" height="19.81124288033459" as="geometry" />
        </mxCell>
        <mxCell id="hJViARgkB2FoWMajNkoL-138" value="" style="ellipse;whiteSpace=wrap;html=1;aspect=fixed;fillColor=#FFFFFF;strokeColor=#000000;" parent="Pg9lr5-QLrictl5AOy7z-55" vertex="1">
          <mxGeometry x="145.25316455696202" y="92.12227939355583" width="19.81124288033459" height="19.81124288033459" as="geometry" />
        </mxCell>
        <mxCell id="hJViARgkB2FoWMajNkoL-139" value="" style="ellipse;whiteSpace=wrap;html=1;aspect=fixed;fillColor=#FFFFFF;strokeColor=#000000;" parent="Pg9lr5-QLrictl5AOy7z-55" vertex="1">
          <mxGeometry x="146.32911392405063" y="48.53754505681974" width="19.81124288033459" height="19.81124288033459" as="geometry" />
        </mxCell>
        <mxCell id="hJViARgkB2FoWMajNkoL-140" value="" style="endArrow=none;html=1;exitX=1;exitY=0.5;exitDx=0;exitDy=0;entryX=0;entryY=0.5;entryDx=0;entryDy=0;fontSize=12;fillColor=#FFFFFF;" parent="Pg9lr5-QLrictl5AOy7z-55" source="hJViARgkB2FoWMajNkoL-132" target="hJViARgkB2FoWMajNkoL-135" edge="1">
          <mxGeometry width="50" height="50" relative="1" as="geometry">
            <mxPoint x="356.1392405063291" y="254.57447101229945" as="sourcePoint" />
            <mxPoint x="76.39240506329114" y="66.36766364912087" as="targetPoint" />
            <Array as="points">
              <mxPoint x="83.92405063291139" y="58.44316649698703" />
            </Array>
          </mxGeometry>
        </mxCell>
        <mxCell id="hJViARgkB2FoWMajNkoL-141" value="" style="endArrow=none;html=1;exitX=1;exitY=1;exitDx=0;exitDy=0;entryX=0;entryY=0;entryDx=0;entryDy=0;fontSize=12;fillColor=#FFFFFF;" parent="Pg9lr5-QLrictl5AOy7z-55" source="hJViARgkB2FoWMajNkoL-132" target="hJViARgkB2FoWMajNkoL-136" edge="1">
          <mxGeometry width="50" height="50" relative="1" as="geometry">
            <mxPoint x="356.1392405063291" y="254.57447101229945" as="sourcePoint" />
            <mxPoint x="409.9367088607595" y="205.04636381146298" as="targetPoint" />
          </mxGeometry>
        </mxCell>
        <mxCell id="hJViARgkB2FoWMajNkoL-142" value="" style="endArrow=none;html=1;entryX=0;entryY=0.5;entryDx=0;entryDy=0;fontSize=12;fillColor=#FFFFFF;" parent="Pg9lr5-QLrictl5AOy7z-55" target="hJViARgkB2FoWMajNkoL-137" edge="1">
          <mxGeometry width="50" height="50" relative="1" as="geometry">
            <mxPoint x="58.10126582278481" y="130.75420301020827" as="sourcePoint" />
            <mxPoint x="409.9367088607595" y="205.04636381146298" as="targetPoint" />
          </mxGeometry>
        </mxCell>
        <mxCell id="hJViARgkB2FoWMajNkoL-143" value="" style="endArrow=none;html=1;exitX=1;exitY=0.5;exitDx=0;exitDy=0;entryX=0;entryY=1;entryDx=0;entryDy=0;fontSize=12;fillColor=#FFFFFF;" parent="Pg9lr5-QLrictl5AOy7z-55" source="hJViARgkB2FoWMajNkoL-134" target="hJViARgkB2FoWMajNkoL-136" edge="1">
          <mxGeometry width="50" height="50" relative="1" as="geometry">
            <mxPoint x="356.1392405063291" y="254.57447101229945" as="sourcePoint" />
            <mxPoint x="409.9367088607595" y="205.04636381146298" as="targetPoint" />
          </mxGeometry>
        </mxCell>
        <mxCell id="hJViARgkB2FoWMajNkoL-145" value="" style="endArrow=none;html=1;exitX=0;exitY=0;exitDx=0;exitDy=0;entryX=0;entryY=1;entryDx=0;entryDy=0;fontSize=12;fillColor=#FFFFFF;" parent="Pg9lr5-QLrictl5AOy7z-55" source="hJViARgkB2FoWMajNkoL-133" target="hJViARgkB2FoWMajNkoL-132" edge="1">
          <mxGeometry width="50" height="50" relative="1" as="geometry">
            <mxPoint x="356.1392405063291" y="254.57447101229945" as="sourcePoint" />
            <mxPoint x="409.9367088607595" y="205.04636381146298" as="targetPoint" />
          </mxGeometry>
        </mxCell>
        <mxCell id="hJViARgkB2FoWMajNkoL-146" value="" style="endArrow=none;html=1;exitX=1;exitY=0;exitDx=0;exitDy=0;entryX=0;entryY=0;entryDx=0;entryDy=0;fontSize=12;fillColor=#FFFFFF;" parent="Pg9lr5-QLrictl5AOy7z-55" source="hJViARgkB2FoWMajNkoL-133" target="hJViARgkB2FoWMajNkoL-134" edge="1">
          <mxGeometry width="50" height="50" relative="1" as="geometry">
            <mxPoint x="356.1392405063291" y="254.57447101229945" as="sourcePoint" />
            <mxPoint x="409.9367088607595" y="205.04636381146298" as="targetPoint" />
          </mxGeometry>
        </mxCell>
        <mxCell id="hJViARgkB2FoWMajNkoL-147" value="" style="endArrow=none;html=1;entryX=0.5;entryY=1;entryDx=0;entryDy=0;exitX=0.5;exitY=0;exitDx=0;exitDy=0;fontSize=12;fillColor=#FFFFFF;" parent="Pg9lr5-QLrictl5AOy7z-55" source="hJViARgkB2FoWMajNkoL-136" target="hJViARgkB2FoWMajNkoL-135" edge="1">
          <mxGeometry width="50" height="50" relative="1" as="geometry">
            <mxPoint x="356.1392405063291" y="254.57447101229945" as="sourcePoint" />
            <mxPoint x="409.9367088607595" y="205.04636381146298" as="targetPoint" />
          </mxGeometry>
        </mxCell>
        <mxCell id="hJViARgkB2FoWMajNkoL-148" value="" style="endArrow=none;html=1;entryX=0.5;entryY=1;entryDx=0;entryDy=0;exitX=0.5;exitY=0;exitDx=0;exitDy=0;fontSize=12;fillColor=#FFFFFF;" parent="Pg9lr5-QLrictl5AOy7z-55" source="hJViARgkB2FoWMajNkoL-137" target="hJViARgkB2FoWMajNkoL-136" edge="1">
          <mxGeometry width="50" height="50" relative="1" as="geometry">
            <mxPoint x="356.1392405063291" y="254.57447101229945" as="sourcePoint" />
            <mxPoint x="409.9367088607595" y="205.04636381146298" as="targetPoint" />
          </mxGeometry>
        </mxCell>
        <mxCell id="hJViARgkB2FoWMajNkoL-149" value="" style="endArrow=none;html=1;entryX=1;entryY=0.5;entryDx=0;entryDy=0;exitX=0;exitY=0.5;exitDx=0;exitDy=0;fontSize=12;fillColor=#FFFFFF;" parent="Pg9lr5-QLrictl5AOy7z-55" source="hJViARgkB2FoWMajNkoL-139" target="hJViARgkB2FoWMajNkoL-135" edge="1">
          <mxGeometry width="50" height="50" relative="1" as="geometry">
            <mxPoint x="356.1392405063291" y="254.57447101229945" as="sourcePoint" />
            <mxPoint x="409.9367088607595" y="205.04636381146298" as="targetPoint" />
          </mxGeometry>
        </mxCell>
        <mxCell id="hJViARgkB2FoWMajNkoL-150" value="" style="endArrow=none;html=1;exitX=1;exitY=0.5;exitDx=0;exitDy=0;entryX=0;entryY=0.5;entryDx=0;entryDy=0;fontSize=12;fillColor=#FFFFFF;" parent="Pg9lr5-QLrictl5AOy7z-55" source="hJViARgkB2FoWMajNkoL-136" target="hJViARgkB2FoWMajNkoL-138" edge="1">
          <mxGeometry width="50" height="50" relative="1" as="geometry">
            <mxPoint x="356.1392405063291" y="254.57447101229945" as="sourcePoint" />
            <mxPoint x="409.9367088607595" y="205.04636381146298" as="targetPoint" />
          </mxGeometry>
        </mxCell>
        <mxCell id="hJViARgkB2FoWMajNkoL-151" value="" style="endArrow=none;html=1;entryX=0.5;entryY=1;entryDx=0;entryDy=0;exitX=0.5;exitY=0;exitDx=0;exitDy=0;fontSize=12;fillColor=#FFFFFF;" parent="Pg9lr5-QLrictl5AOy7z-55" source="hJViARgkB2FoWMajNkoL-138" target="hJViARgkB2FoWMajNkoL-139" edge="1">
          <mxGeometry width="50" height="50" relative="1" as="geometry">
            <mxPoint x="356.1392405063291" y="254.57447101229945" as="sourcePoint" />
            <mxPoint x="409.9367088607595" y="205.04636381146298" as="targetPoint" />
          </mxGeometry>
        </mxCell>
        <mxCell id="hJViARgkB2FoWMajNkoL-152" value="" style="ellipse;whiteSpace=wrap;html=1;aspect=fixed;fillColor=#FFFFFF;strokeColor=#000000;" parent="Pg9lr5-QLrictl5AOy7z-55" vertex="1">
          <mxGeometry x="174.30379746835442" y="127.7825165781581" width="19.81124288033459" height="19.81124288033459" as="geometry" />
        </mxCell>
        <mxCell id="hJViARgkB2FoWMajNkoL-153" value="" style="endArrow=none;html=1;entryX=0.5;entryY=1;entryDx=0;entryDy=0;fontSize=12;fillColor=#FFFFFF;exitX=0;exitY=0;exitDx=0;exitDy=0;" parent="Pg9lr5-QLrictl5AOy7z-55" source="hJViARgkB2FoWMajNkoL-152" target="hJViARgkB2FoWMajNkoL-138" edge="1">
          <mxGeometry width="50" height="50" relative="1" as="geometry">
            <mxPoint x="185.0632911392405" y="127.7825165781581" as="sourcePoint" />
            <mxPoint x="409.9367088607595" y="205.04636381146298" as="targetPoint" />
          </mxGeometry>
        </mxCell>
        <mxCell id="hJViARgkB2FoWMajNkoL-154" value="" style="ellipse;whiteSpace=wrap;html=1;aspect=fixed;fillColor=#FFFFFF;strokeColor=#000000;" parent="Pg9lr5-QLrictl5AOy7z-55" vertex="1">
          <mxGeometry x="191.51898734177215" y="42.59417219271936" width="19.81124288033459" height="19.81124288033459" as="geometry" />
        </mxCell>
        <mxCell id="hJViARgkB2FoWMajNkoL-155" value="" style="ellipse;whiteSpace=wrap;html=1;aspect=fixed;fillColor=#FFFFFF;strokeColor=#000000;" parent="Pg9lr5-QLrictl5AOy7z-55" vertex="1">
          <mxGeometry x="205.50632911392404" y="88.65531188949728" width="19.81124288033459" height="19.81124288033459" as="geometry" />
        </mxCell>
        <mxCell id="hJViARgkB2FoWMajNkoL-156" value="" style="endArrow=none;html=1;exitX=1;exitY=0.5;exitDx=0;exitDy=0;entryX=0;entryY=0.5;entryDx=0;entryDy=0;fontSize=12;fillColor=#FFFFFF;" parent="Pg9lr5-QLrictl5AOy7z-55" source="hJViARgkB2FoWMajNkoL-139" target="hJViARgkB2FoWMajNkoL-154" edge="1">
          <mxGeometry width="50" height="50" relative="1" as="geometry">
            <mxPoint x="356.1392405063291" y="155.5182566106265" as="sourcePoint" />
            <mxPoint x="409.9367088607595" y="105.99014940979005" as="targetPoint" />
          </mxGeometry>
        </mxCell>
        <mxCell id="hJViARgkB2FoWMajNkoL-157" value="" style="endArrow=none;html=1;entryX=0;entryY=0;entryDx=0;entryDy=0;exitX=1;exitY=1;exitDx=0;exitDy=0;fontSize=12;fillColor=#FFFFFF;" parent="Pg9lr5-QLrictl5AOy7z-55" source="hJViARgkB2FoWMajNkoL-139" target="hJViARgkB2FoWMajNkoL-155" edge="1">
          <mxGeometry width="50" height="50" relative="1" as="geometry">
            <mxPoint x="162.46835443037975" y="56.46204220895358" as="sourcePoint" />
            <mxPoint x="409.9367088607595" y="105.99014940979005" as="targetPoint" />
          </mxGeometry>
        </mxCell>
        <mxCell id="hJViARgkB2FoWMajNkoL-158" value="" style="endArrow=none;html=1;exitX=1;exitY=0.5;exitDx=0;exitDy=0;entryX=0;entryY=1;entryDx=0;entryDy=0;fontSize=12;fillColor=#FFFFFF;" parent="Pg9lr5-QLrictl5AOy7z-55" source="hJViARgkB2FoWMajNkoL-138" target="hJViARgkB2FoWMajNkoL-155" edge="1">
          <mxGeometry width="50" height="50" relative="1" as="geometry">
            <mxPoint x="356.1392405063291" y="155.5182566106265" as="sourcePoint" />
            <mxPoint x="409.9367088607595" y="105.99014940979005" as="targetPoint" />
          </mxGeometry>
        </mxCell>
        <mxCell id="hJViARgkB2FoWMajNkoL-159" value="" style="endArrow=none;html=1;exitX=0.5;exitY=0;exitDx=0;exitDy=0;entryX=0.5;entryY=1;entryDx=0;entryDy=0;fontSize=12;fillColor=#FFFFFF;" parent="Pg9lr5-QLrictl5AOy7z-55" source="hJViARgkB2FoWMajNkoL-155" target="hJViARgkB2FoWMajNkoL-154" edge="1">
          <mxGeometry width="50" height="50" relative="1" as="geometry">
            <mxPoint x="356.1392405063291" y="155.5182566106265" as="sourcePoint" />
            <mxPoint x="409.9367088607595" y="105.99014940979005" as="targetPoint" />
          </mxGeometry>
        </mxCell>
        <mxCell id="hJViARgkB2FoWMajNkoL-160" value="" style="ellipse;whiteSpace=wrap;html=1;aspect=fixed;fillColor=#FFFFFF;strokeColor=#000000;" parent="Pg9lr5-QLrictl5AOy7z-55" vertex="1">
          <mxGeometry x="307.72151898734177" y="68.8440690091627" width="19.81124288033459" height="19.81124288033459" as="geometry" />
        </mxCell>
        <mxCell id="hJViARgkB2FoWMajNkoL-161" value="" style="ellipse;whiteSpace=wrap;html=1;aspect=fixed;fillColor=#FFFFFF;strokeColor=#000000;" parent="Pg9lr5-QLrictl5AOy7z-55" vertex="1">
          <mxGeometry x="342.1518987341772" y="62.40541507305395" width="19.81124288033459" height="19.81124288033459" as="geometry" />
        </mxCell>
        <mxCell id="hJViARgkB2FoWMajNkoL-162" value="" style="ellipse;whiteSpace=wrap;html=1;aspect=fixed;fillColor=#FFFFFF;strokeColor=#000000;" parent="Pg9lr5-QLrictl5AOy7z-55" vertex="1">
          <mxGeometry x="294.8101265822785" y="38.63192361665244" width="19.81124288033459" height="19.81124288033459" as="geometry" />
        </mxCell>
        <mxCell id="hJViARgkB2FoWMajNkoL-163" value="" style="ellipse;whiteSpace=wrap;html=1;aspect=fixed;fillColor=#FFFFFF;strokeColor=#000000;" parent="Pg9lr5-QLrictl5AOy7z-55" vertex="1">
          <mxGeometry x="348.60759493670884" y="29.71686432050188" width="19.81124288033459" height="19.81124288033459" as="geometry" />
        </mxCell>
        <mxCell id="hJViARgkB2FoWMajNkoL-164" value="" style="endArrow=none;html=1;exitX=1;exitY=0.5;exitDx=0;exitDy=0;entryX=0;entryY=0.5;entryDx=0;entryDy=0;fontSize=12;fillColor=#FFFFFF;" parent="Pg9lr5-QLrictl5AOy7z-55" source="hJViARgkB2FoWMajNkoL-162" target="hJViARgkB2FoWMajNkoL-163" edge="1">
          <mxGeometry width="50" height="50" relative="1" as="geometry">
            <mxPoint x="391.6455696202531" y="250.61222243623254" as="sourcePoint" />
            <mxPoint x="445.44303797468353" y="201.08411523539607" as="targetPoint" />
          </mxGeometry>
        </mxCell>
        <mxCell id="hJViARgkB2FoWMajNkoL-165" value="" style="endArrow=none;html=1;exitX=1;exitY=1;exitDx=0;exitDy=0;entryX=0;entryY=0;entryDx=0;entryDy=0;fontSize=12;fillColor=#FFFFFF;" parent="Pg9lr5-QLrictl5AOy7z-55" source="hJViARgkB2FoWMajNkoL-162" target="hJViARgkB2FoWMajNkoL-161" edge="1">
          <mxGeometry width="50" height="50" relative="1" as="geometry">
            <mxPoint x="391.6455696202531" y="250.61222243623254" as="sourcePoint" />
            <mxPoint x="445.44303797468353" y="201.08411523539607" as="targetPoint" />
          </mxGeometry>
        </mxCell>
        <mxCell id="hJViARgkB2FoWMajNkoL-166" value="" style="endArrow=none;html=1;entryX=0;entryY=0;entryDx=0;entryDy=0;fontSize=12;fillColor=#FFFFFF;exitX=0.5;exitY=1;exitDx=0;exitDy=0;" parent="Pg9lr5-QLrictl5AOy7z-55" target="hJViARgkB2FoWMajNkoL-160" edge="1" source="hJViARgkB2FoWMajNkoL-162">
          <mxGeometry width="50" height="50" relative="1" as="geometry">
            <mxPoint x="308.79746835443035" y="59.43372864100376" as="sourcePoint" />
            <mxPoint x="445.44303797468353" y="201.08411523539607" as="targetPoint" />
          </mxGeometry>
        </mxCell>
        <mxCell id="hJViARgkB2FoWMajNkoL-167" value="" style="endArrow=none;html=1;exitX=1;exitY=0;exitDx=0;exitDy=0;entryX=0.5;entryY=1;entryDx=0;entryDy=0;fontSize=12;fillColor=#FFFFFF;" parent="Pg9lr5-QLrictl5AOy7z-55" source="hJViARgkB2FoWMajNkoL-161" target="hJViARgkB2FoWMajNkoL-163" edge="1">
          <mxGeometry width="50" height="50" relative="1" as="geometry">
            <mxPoint x="391.6455696202531" y="250.61222243623254" as="sourcePoint" />
            <mxPoint x="445.44303797468353" y="201.08411523539607" as="targetPoint" />
          </mxGeometry>
        </mxCell>
        <mxCell id="hJViARgkB2FoWMajNkoL-168" value="" style="endArrow=none;html=1;exitX=1;exitY=0.5;exitDx=0;exitDy=0;entryX=0;entryY=1;entryDx=0;entryDy=0;fontSize=12;fillColor=#FFFFFF;" parent="Pg9lr5-QLrictl5AOy7z-55" source="hJViARgkB2FoWMajNkoL-160" target="hJViARgkB2FoWMajNkoL-161" edge="1">
          <mxGeometry width="50" height="50" relative="1" as="geometry">
            <mxPoint x="391.6455696202531" y="250.61222243623254" as="sourcePoint" />
            <mxPoint x="445.44303797468353" y="201.08411523539607" as="targetPoint" />
          </mxGeometry>
        </mxCell>
        <mxCell id="hJViARgkB2FoWMajNkoL-169" value="" style="ellipse;whiteSpace=wrap;html=1;aspect=fixed;fillColor=#FFFFFF;strokeColor=#000000;" parent="Pg9lr5-QLrictl5AOy7z-55" vertex="1">
          <mxGeometry x="363.67088607594934" y="107.9712736978235" width="19.81124288033459" height="19.81124288033459" as="geometry" />
        </mxCell>
        <mxCell id="hJViARgkB2FoWMajNkoL-170" value="" style="ellipse;whiteSpace=wrap;html=1;aspect=fixed;fillColor=#FFFFFF;strokeColor=#000000;" parent="Pg9lr5-QLrictl5AOy7z-55" vertex="1">
          <mxGeometry x="348.60759493670884" y="147.59375945849268" width="19.81124288033459" height="19.81124288033459" as="geometry" />
        </mxCell>
        <mxCell id="hJViARgkB2FoWMajNkoL-171" value="" style="ellipse;whiteSpace=wrap;html=1;aspect=fixed;fillColor=#FFFFFF;strokeColor=#000000;" parent="Pg9lr5-QLrictl5AOy7z-55" vertex="1">
          <mxGeometry x="299.1139240506329" y="140.65982445037557" width="19.81124288033459" height="19.81124288033459" as="geometry" />
        </mxCell>
        <mxCell id="hJViARgkB2FoWMajNkoL-172" value="" style="ellipse;whiteSpace=wrap;html=1;aspect=fixed;fillColor=#FFFFFF;strokeColor=#000000;" parent="Pg9lr5-QLrictl5AOy7z-55" vertex="1">
          <mxGeometry x="323.32278481012656" y="111.93352227389042" width="19.81124288033459" height="19.81124288033459" as="geometry" />
        </mxCell>
        <mxCell id="hJViARgkB2FoWMajNkoL-173" value="" style="endArrow=none;html=1;entryX=0;entryY=1;entryDx=0;entryDy=0;exitX=1;exitY=0;exitDx=0;exitDy=0;fontSize=12;fillColor=#FFFFFF;" parent="Pg9lr5-QLrictl5AOy7z-55" source="hJViARgkB2FoWMajNkoL-171" target="hJViARgkB2FoWMajNkoL-172" edge="1">
          <mxGeometry width="50" height="50" relative="1" as="geometry">
            <mxPoint x="391.6455696202531" y="250.61222243623254" as="sourcePoint" />
            <mxPoint x="445.44303797468353" y="201.08411523539607" as="targetPoint" />
          </mxGeometry>
        </mxCell>
        <mxCell id="hJViARgkB2FoWMajNkoL-174" value="" style="endArrow=none;html=1;entryX=1;entryY=1;entryDx=0;entryDy=0;exitX=0;exitY=0;exitDx=0;exitDy=0;fontSize=12;fillColor=#FFFFFF;" parent="Pg9lr5-QLrictl5AOy7z-55" source="hJViARgkB2FoWMajNkoL-170" target="hJViARgkB2FoWMajNkoL-172" edge="1">
          <mxGeometry width="50" height="50" relative="1" as="geometry">
            <mxPoint x="391.6455696202531" y="250.61222243623254" as="sourcePoint" />
            <mxPoint x="445.44303797468353" y="201.08411523539607" as="targetPoint" />
          </mxGeometry>
        </mxCell>
        <mxCell id="hJViARgkB2FoWMajNkoL-175" value="" style="endArrow=none;html=1;exitX=1;exitY=0.5;exitDx=0;exitDy=0;entryX=0;entryY=0.5;entryDx=0;entryDy=0;fontSize=12;fillColor=#FFFFFF;" parent="Pg9lr5-QLrictl5AOy7z-55" source="hJViARgkB2FoWMajNkoL-172" target="hJViARgkB2FoWMajNkoL-169" edge="1">
          <mxGeometry width="50" height="50" relative="1" as="geometry">
            <mxPoint x="391.6455696202531" y="250.61222243623254" as="sourcePoint" />
            <mxPoint x="445.44303797468353" y="201.08411523539607" as="targetPoint" />
          </mxGeometry>
        </mxCell>
        <mxCell id="hJViARgkB2FoWMajNkoL-176" value="" style="endArrow=none;html=1;entryX=0.5;entryY=1;entryDx=0;entryDy=0;exitX=1;exitY=0;exitDx=0;exitDy=0;fontSize=12;fillColor=#FFFFFF;" parent="Pg9lr5-QLrictl5AOy7z-55" source="hJViARgkB2FoWMajNkoL-170" target="hJViARgkB2FoWMajNkoL-169" edge="1">
          <mxGeometry width="50" height="50" relative="1" as="geometry">
            <mxPoint x="391.6455696202531" y="250.61222243623254" as="sourcePoint" />
            <mxPoint x="445.44303797468353" y="201.08411523539607" as="targetPoint" />
          </mxGeometry>
        </mxCell>
        <mxCell id="hJViARgkB2FoWMajNkoL-228" value="" style="endArrow=none;html=1;entryX=0.5;entryY=0;entryDx=0;entryDy=0;exitX=1;exitY=1;exitDx=0;exitDy=0;fontSize=12;fillColor=#FFFFFF;" parent="Pg9lr5-QLrictl5AOy7z-55" source="hJViARgkB2FoWMajNkoL-160" target="hJViARgkB2FoWMajNkoL-169" edge="1">
          <mxGeometry width="50" height="50" relative="1" as="geometry">
            <mxPoint x="375.50632911392404" y="250.61222243623254" as="sourcePoint" />
            <mxPoint x="429.3037974683544" y="201.08411523539607" as="targetPoint" />
          </mxGeometry>
        </mxCell>
        <mxCell id="hJViARgkB2FoWMajNkoL-234" value="" style="endArrow=none;html=1;exitX=1;exitY=0.5;exitDx=0;exitDy=0;fontSize=12;fillColor=#FFFFFF;entryX=0.005;entryY=0.69;entryDx=0;entryDy=0;entryPerimeter=0;" parent="Pg9lr5-QLrictl5AOy7z-55" source="hJViARgkB2FoWMajNkoL-155" edge="1" target="hJViARgkB2FoWMajNkoL-160">
          <mxGeometry width="50" height="50" relative="1" as="geometry">
            <mxPoint x="251.77215189873417" y="141.6503865943923" as="sourcePoint" />
            <mxPoint x="305.56962025316454" y="92.12227939355583" as="targetPoint" />
          </mxGeometry>
        </mxCell>
        <mxCell id="hJViARgkB2FoWMajNkoL-235" value="" style="endArrow=none;html=1;entryX=1;entryY=1;entryDx=0;entryDy=0;exitX=1;exitY=0;exitDx=0;exitDy=0;fontSize=12;fillColor=#FFFFFF;" parent="Pg9lr5-QLrictl5AOy7z-55" source="hJViARgkB2FoWMajNkoL-152" target="hJViARgkB2FoWMajNkoL-155" edge="1">
          <mxGeometry width="50" height="50" relative="1" as="geometry">
            <mxPoint x="356.1392405063291" y="254.57447101229945" as="sourcePoint" />
            <mxPoint x="409.9367088607595" y="205.04636381146298" as="targetPoint" />
          </mxGeometry>
        </mxCell>
        <mxCell id="hJViARgkB2FoWMajNkoL-237" value="" style="endArrow=none;html=1;entryX=1;entryY=0.5;entryDx=0;entryDy=0;exitX=0;exitY=0.5;exitDx=0;exitDy=0;fontSize=12;fillColor=#FFFFFF;" parent="Pg9lr5-QLrictl5AOy7z-55" source="hJViARgkB2FoWMajNkoL-171" target="hJViARgkB2FoWMajNkoL-152" edge="1">
          <mxGeometry width="50" height="50" relative="1" as="geometry">
            <mxPoint x="295.88607594936707" y="151.5560080345596" as="sourcePoint" />
            <mxPoint x="206.65874384820975" y="108.0416707819156" as="targetPoint" />
          </mxGeometry>
        </mxCell>
        <mxCell id="Pg9lr5-QLrictl5AOy7z-11" value="MTrans" style="text;html=1;resizable=0;autosize=1;align=center;verticalAlign=middle;points=[];fillColor=none;strokeColor=none;rounded=0;dashed=1;" vertex="1" parent="Pg9lr5-QLrictl5AOy7z-55">
          <mxGeometry x="33.892405063291136" y="29.71686432050188" width="60" height="20" as="geometry" />
        </mxCell>
        <mxCell id="Pg9lr5-QLrictl5AOy7z-12" value="InfoE" style="text;html=1;resizable=0;autosize=1;align=center;verticalAlign=middle;points=[];fillColor=none;strokeColor=none;rounded=0;dashed=1;" vertex="1" parent="Pg9lr5-QLrictl5AOy7z-55">
          <mxGeometry x="158.1645569620253" y="28.726302176485152" width="40" height="20" as="geometry" />
        </mxCell>
        <mxCell id="Pg9lr5-QLrictl5AOy7z-23" value="RP" style="text;html=1;resizable=0;autosize=1;align=center;verticalAlign=middle;points=[];fillColor=none;strokeColor=none;rounded=0;dashed=1;" vertex="1" parent="Pg9lr5-QLrictl5AOy7z-55">
          <mxGeometry x="371.2025316455696" y="133.72588944225848" width="30" height="20" as="geometry" />
        </mxCell>
        <mxCell id="Pg9lr5-QLrictl5AOy7z-24" value="MPP" style="text;html=1;resizable=0;autosize=1;align=center;verticalAlign=middle;points=[];fillColor=none;strokeColor=none;rounded=0;dashed=1;" vertex="1" parent="Pg9lr5-QLrictl5AOy7z-55">
          <mxGeometry x="305.56962025316454" y="22.782929312384777" width="40" height="20" as="geometry" />
        </mxCell>
        <mxCell id="Pg9lr5-QLrictl5AOy7z-49" value="&lt;b&gt;NLP&lt;/b&gt;" style="text;html=1;resizable=0;autosize=1;align=center;verticalAlign=middle;points=[];fillColor=none;strokeColor=none;rounded=0;dashed=1;" vertex="1" parent="Pg9lr5-QLrictl5AOy7z-55">
          <mxGeometry x="100.0632911392405" y="15.84899430426767" width="40" height="20" as="geometry" />
        </mxCell>
        <mxCell id="Pg9lr5-QLrictl5AOy7z-51" value="&lt;b&gt;CM&lt;/b&gt;" style="text;html=1;resizable=0;autosize=1;align=center;verticalAlign=middle;points=[];fillColor=none;strokeColor=none;rounded=0;dashed=1;" vertex="1" parent="Pg9lr5-QLrictl5AOy7z-55">
          <mxGeometry x="386.2658227848101" y="82.21665795338853" width="30" height="20" as="geometry" />
        </mxCell>
        <mxCell id="Pg9lr5-QLrictl5AOy7z-72" value="" style="group" vertex="1" connectable="0" parent="1">
          <mxGeometry x="400" y="740" width="243" height="190" as="geometry" />
        </mxCell>
        <mxCell id="Pg9lr5-QLrictl5AOy7z-57" value="" style="shape=tape;whiteSpace=wrap;html=1;strokeWidth=2;size=0.02929427430093209;dashed=1;" vertex="1" parent="Pg9lr5-QLrictl5AOy7z-72">
          <mxGeometry width="240" height="190" as="geometry" />
        </mxCell>
        <mxCell id="Pg9lr5-QLrictl5AOy7z-58" value="&lt;div style=&quot;text-align: left ; font-size: 14px&quot;&gt;&lt;font style=&quot;font-size: 14px&quot;&gt;&lt;b&gt;MTrans&lt;/b&gt;:&amp;nbsp;Machine Translation&lt;/font&gt;&lt;/div&gt;" style="text;html=1;resizable=0;autosize=1;align=center;verticalAlign=middle;points=[];fillColor=none;strokeColor=none;rounded=0;dashed=1;" vertex="1" parent="Pg9lr5-QLrictl5AOy7z-72">
          <mxGeometry y="23" width="200" height="20" as="geometry" />
        </mxCell>
        <mxCell id="Pg9lr5-QLrictl5AOy7z-59" value="&lt;span style=&quot;box-sizing: border-box ; font-family: &amp;#34;arial&amp;#34; , &amp;#34;microsoft yahei&amp;#34; , &amp;#34;\\5fae软雅黑&amp;#34; , &amp;#34;\\5b8b体&amp;#34; , &amp;#34;malgun gothic&amp;#34; , &amp;#34;meiryo&amp;#34; , sans-serif ; font-size: 14px ; line-height: 14px ; text-align: left ; background-color: rgb(255 , 255 , 255)&quot;&gt;&lt;b&gt;NLP&lt;/b&gt;:&amp;nbsp; &amp;nbsp;Natural Language Processing&lt;/span&gt;" style="text;html=1;resizable=0;autosize=1;align=center;verticalAlign=middle;points=[];fillColor=none;strokeColor=none;rounded=0;dashed=1;" vertex="1" parent="Pg9lr5-QLrictl5AOy7z-72">
          <mxGeometry x="3" y="78" width="240" height="20" as="geometry" />
        </mxCell>
        <mxCell id="Pg9lr5-QLrictl5AOy7z-60" value="&lt;div style=&quot;text-align: left&quot;&gt;&lt;font style=&quot;font-size: 14px&quot;&gt;&lt;b&gt;InfoE&lt;/b&gt;:&amp;nbsp; &amp;nbsp;Information Extraction&lt;/font&gt;&lt;/div&gt;" style="text;html=1;resizable=0;autosize=1;align=center;verticalAlign=middle;points=[];fillColor=none;strokeColor=none;rounded=0;dashed=1;" vertex="1" parent="Pg9lr5-QLrictl5AOy7z-72">
          <mxGeometry x="4" y="50" width="200" height="20" as="geometry" />
        </mxCell>
        <mxCell id="Pg9lr5-QLrictl5AOy7z-61" value="&lt;div style=&quot;text-align: left&quot;&gt;&lt;font face=&quot;arial, microsoft yahei, \\5fae软雅黑, \\5b8b体, malgun gothic, meiryo, sans-serif&quot;&gt;&lt;span style=&quot;font-size: 14px ; background-color: rgb(255 , 255 , 255)&quot;&gt;&lt;b&gt;RP:&amp;nbsp; &amp;nbsp; &amp;nbsp;&lt;/b&gt;&lt;/span&gt;&lt;/font&gt;&lt;span style=&quot;font-family: &amp;#34;arial&amp;#34; , &amp;#34;microsoft yahei&amp;#34; , &amp;#34;\\5fae软雅黑&amp;#34; , &amp;#34;\\5b8b体&amp;#34; , &amp;#34;malgun gothic&amp;#34; , &amp;#34;meiryo&amp;#34; , sans-serif ; font-size: 14px&quot;&gt;Robotic Planning&lt;/span&gt;&lt;/div&gt;" style="text;html=1;resizable=0;autosize=1;align=center;verticalAlign=middle;points=[];fillColor=none;strokeColor=none;rounded=0;dashed=1;" vertex="1" parent="Pg9lr5-QLrictl5AOy7z-72">
          <mxGeometry x="4" y="104" width="160" height="20" as="geometry" />
        </mxCell>
        <mxCell id="Pg9lr5-QLrictl5AOy7z-62" value="&lt;span style=&quot;box-sizing: border-box ; font-family: &amp;#34;arial&amp;#34; , &amp;#34;microsoft yahei&amp;#34; , &amp;#34;\\5fae软雅黑&amp;#34; , &amp;#34;\\5b8b体&amp;#34; , &amp;#34;malgun gothic&amp;#34; , &amp;#34;meiryo&amp;#34; , sans-serif ; font-size: 14px ; line-height: 14px ; text-align: left ; background-color: rgb(255 , 255 , 255)&quot;&gt;&lt;b&gt;MPP&lt;/b&gt;:&amp;nbsp; &amp;nbsp;Motion Path Planning&lt;/span&gt;" style="text;html=1;resizable=0;autosize=1;align=center;verticalAlign=middle;points=[];fillColor=none;strokeColor=none;rounded=0;dashed=1;" vertex="1" parent="Pg9lr5-QLrictl5AOy7z-72">
          <mxGeometry x="4" y="129" width="190" height="20" as="geometry" />
        </mxCell>
        <mxCell id="Pg9lr5-QLrictl5AOy7z-63" value="&lt;span style=&quot;box-sizing: border-box ; font-family: &amp;#34;arial&amp;#34; , &amp;#34;microsoft yahei&amp;#34; , &amp;#34;\\5fae软雅黑&amp;#34; , &amp;#34;\\5b8b体&amp;#34; , &amp;#34;malgun gothic&amp;#34; , &amp;#34;meiryo&amp;#34; , sans-serif ; font-size: 14px ; line-height: 14px ; text-align: left ; background-color: rgb(255 , 255 , 255)&quot;&gt;&lt;b&gt;CM&lt;/b&gt;:&amp;nbsp; &amp;nbsp; &amp;nbsp;Control Methods&lt;/span&gt;" style="text;html=1;resizable=0;autosize=1;align=center;verticalAlign=middle;points=[];fillColor=none;strokeColor=none;rounded=0;dashed=1;" vertex="1" parent="Pg9lr5-QLrictl5AOy7z-72">
          <mxGeometry x="3" y="153" width="160" height="20" as="geometry" />
        </mxCell>
      </root>
    </mxGraphModel>
  </diagram>
</mxfile>
